<?xml version="1.0" encoding="UTF-8"?>
<svg version="1.1" viewBox="0 0 2048 1365" width="1280" height="1280" xmlns="http://www.w3.org/2000/svg">
<path transform="translate(0)" d="m0 0h2048v1365h-2048z" fill="#FDFDFD"/>
<path transform="translate(1161,217)" d="m0 0h9l19 3 12 5 11 7 9 8 9 12 8 17 3 9 3-7 3-2 5-1 41-2 26-1 20-4 16-5 16-8 29-17 10-5 15-1h180l4 3 2 4 5 4 5 9 1 4v8l-5 10-6 7-5 3-6 1h-19l-18 2-10 3-10 5-6 5-4 6-4 14v14l-1 3-4 2-13 2 2 1 7-1 8-2 2-3 1 11h38l16 4 8 6 6 7 6 14 6-1v-7l3-3 7-1 46-1 60 1 16 3 15 5 17 9 11 9 7 7 6 8v3l2 1 5 8 8 16 2 8 1 9v34l-1 9-5 12-5 10-4 6-3 5h-2l-2 5-5 5-3 1-2 4-4 3h-2l-1 3-14 9-14 6-15 3-17 1-28 1h-56l-3-1-1 13-10 65-9 60-16 107-14 91-5 17-6 10-7 7-13 8-7 4 3 5 2 4 2 20v10l-3 8-25 40-9 15-13 21-16 26-14 23-10 16-9 14-12 20-12 22-6 8-8 5-10 4-10 2-10 1h-33l-60-3-30-2-40-2-224-12-85-4-38-2-48-2-114-5-59-2-163-6-30-2-9-4-5-6v-14l3-12 6-9 6-5h2v-2l20-14 13-8 4-2 27 1-2-14v-10l4-8 8-7 6-3 12-1 79 1 9 2 7 8 4 8v7l-3 10-1 8 15-1 4-9 1-5v-17l-3-45-1-6v-72l2-25 5-31 3-13 1-1v-8h-14l-38-3-48-5-24-4-11-4-9-6-7-7-6-12-2-7-1-8v-24l4-48 1-14-19 2h-18l-11-4-1-1-1-7v-24l2-17-6-1 2-4 23-70 12-25 10-16 8-10 8-7 9-3 18-3 24-3 6-2 8-16-6-2-11-7-9-8-8-16-4-11-2-12 1-11 4-10 2-4-4-1v-2l8-1h2l2-7 5 1 6-13 6-5 8-3 41-1 12-5 3-2 5 1 7 7 8 16 2 8-1 11-7 14-3 2-2 42-4 12-6 10-8 4h-6v9l3 3 17 3 17 4 6 4 9 9 9 11 11 13 15 20 19 29 1 5-3 5 1 7 1 2 5-1 10-6 23-12 24-11 14-7 5-2 5-8 5-6 1-14 12-77 4-26 3-16 4-6 7-6 11-4 24-1 5-27 5-29 5-12 7-9 9-8 8-4 6-2 15-2 1-1 89-1 8-2-1-4-9-8-5-10-2-7v-13l3-7 6-8 8-7 11-4 8-1h20l9-17 7-9 10-9 13-8 18-6z" fill="#FBFCFD"/>
<path transform="translate(1591,445)" d="m0 0h17l16 4 12 6 7 8 1 3v14l-12 81-11 71-10 67-16 107-14 91-5 17-6 10-7 7-13 8-7 4 3 5 2 4 2 20v10l-3 8-25 40-9 15-13 21-16 26-14 23-10 16-9 14-12 20-12 22-6 8-8 5-10 4-10 2-10 1h-33l-60-3-30-2-40-2-224-12-85-4-38-2-48-2-114-5-59-2-163-6-30-2-9-4-5-6v-14l3-12 6-9 6-5h2v-2l20-14 13-8 4-2 27 1-2-14v-10l4-8 8-7 6-3 12-1 79 1 9 2 7 8 4 8v7l-3 10-1 8 15-1 4-9 1-5v-17l-3-45-1-6v-72l2-25 5-31 3-13 1-1v-8h-14l-38-3-48-5-24-4-11-4-9-6-7-7-6-12-2-7-1-8v-12l1-9 32 8 13 1 1-9 2-3 39-1 8-1 8-30 17-64 8-26 3-4h159l25 1-2 2-40 1h-139l-1 3h-2l-2 9-3 14-9 34-6 23-2 10-8 30v5l4 1h66l115 1 10 4 11 8 7 8 4 10v52l-1 37h36l219 4 367 7h63l8-2v-2l5-4 1-2h2l4-17 14-91 7-48 1-11 3-17 4-26 2-18 2-8 6-38 1-12 2-8 6-41 2-16 6-36 3-20v-12l-5-9-4-2-2 13-2 7-3 24-11 68-7 46-15 94-11 69-3 15-4 10-6 9-9 8-14 7-12 2h-121l-1-5 126-1 12-4 9-6 8-8 5-10 4-18 9-55 9-58 13-82 14-88 6-34 3-3z" fill="#72AEF1"/>
<path transform="translate(1605,762)" d="m0 0m11-3 18 1 22 5 15 5 18 7 13 6 14 7 15 10 8 5v2l4 1v2l4 2 11 10 15 15 9 11 11 15 8 14 6 12 4 10 4 8 7 23 4 23 2 18 1 16v17l-1 17-2 17-4 16-6 19-8 20-13 22-16 22h-2l-2 4-2 3h-2l-2 4-14 14-8 7-13 10-14 9-10 6-23 11-16 6-16 5-12 3-21 2-22 1h-198l-71-1-135 1h-835l-17-1-18-3-12-4-10-4-21-11-14-10v-2h-2v-2l-4-2-7-7-12-16-11-18-6-12-5-14-3-17v-34l4-25 6-18 9-17 10-14 12-13 6-5 4-4h2v-2h3l1-3 14-9 15-8 14-5 22-4 14-1 29-1h71l53-1 15-2 12-3 12-5 10-6 5-1 6 2-1 2-4 2 1 3h4l3 12 3-8 2 3 1 3v13l2-69v-11l-73-1-5-3-2-4v-7l4-6 10-1h55l44 5 34 3 25 1h5l1 1v8l-2 5-6 32-2 18-1 15v72l1 6 3 45v17l-3 9-3 6h-15v-8l3-10v-7l-5-9-5-6-9-2-85-1-9 2-8 6-5 7-1 3v10l1 6v8l-2 1-25-1-9 5-18 12-8 6h-2v2l-9 7-5 10-2 9v14l4 5 9 4 30 2 163 6 80 3 161 7 142 7 73 4 41 2 181 10 20 1h33l15-2 13-4 9-5 4-5 10-18 12-21 13-20 11-18 14-23 15-24 13-21 10-17 14-22 12-20 1-4v-10l-2-20-3-5-2-4 8-5 14-9 8-9 5-12 4-17 20-131 4 3 4-2z" fill="#EAEEF8"/>
<path transform="translate(651,385)" d="m0 0 5 1 7 7 8 16 2 8-1 11-7 14-3 2-2 42-4 12-6 10-8 4h-6v9l3 3 17 3 17 4 6 4 9 9 9 11 11 13 15 20 19 29 1 5-3 5 1 7 1 2 5-1 10-6 23-12 24-11 14-7 5-2 5-8 9-9h2v-2l8-7 8-5h4l-1 6-8 7h-2l-2 5 1 4 4 3-1 8-6 5-17 9-12 14-20 20-6 4-3 1-138 1-4 9-8 28-12 45-9 34-3 8-8 1-39 1-3 11h-13l-23-6-9-3-1-3 4-48 1-14-19 2h-18l-11-4-1-1-1-7v-24l2-17-6-1 2-4 23-70 12-25 10-16 8-10 8-7 9-3 18-3 24-3 6-2 8-16-6-2-11-7-9-8-8-16-4-11-2-12 1-11 4-10 2-4-4-1v-2l8-1h2l2-7 5 1 6-13 6-5 8-3 41-1 12-5z" fill="#FB9977"/>
<path transform="translate(1589,476)" d="m0 0 5 2 5 9v12l-8 52-2 9-3 25-5 33-1 2-2 18-6 38-1 2-3 24-4 27-2 10-3 25-11 73-9 58-4 11h-2l-2 4-4 2v2l-8 3h-63l-326-6-260-5-36-1v-89l-4-10-4-5v-9l3-17 5-12h2l3-14v-11l2-10 5-20 5-25 2-3 4 1-1 8v25l-13 81-1 7v20l7 14 8 6 10 4 7 1 271 1v-4l-270-1v-1l259-1 10-1 3 3 3 1 26 1 137 1h26l23-1 3-4 3-1 33 1 93 1v1h-126l1 4h121l12-2 14-7 9-8 6-10 4-12 6-36 16-101 12-75 9-57 5-32 2-16z" fill="#EDF7FD"/>
<path transform="translate(648,652)" d="m0 0h159l25 1-2 2-40 1h-139l-1 3h-2l-2 9-3 14-9 34-6 23-2 10-8 30v5l4 1h66l115 1 10 4 11 8 7 8 4 10v52l-1 10v106l1 43 1 26v14l-4 1h-23l-4-10-9-37-2-6-7-31-3-19-3-11-4-31-3-27v-23l2-22-16 2-13 1-2 11-3 13-3 14-2 7-2 12-6 25-6 28-7 33-3 11-4 23-6 29-3 10-10 1-19-2 1 11 4 1 4 4 2 1h10l10-2 6 8 4 7 8 5 7 5v6l-2 3h-2v2l-9 3-12-1-7-3-8-6-7-6-5-5-10-8v-7l3-6 1-5v-17l-3-45-1-6v-72l2-25 5-31 3-13 1-1v-8h-14l-38-3-48-5-24-4-11-4-9-6-7-7-6-12-2-7-1-8v-12l1-9 32 8 13 1 1-9 2-3 39-1 8-1 8-30 17-64 8-26z" fill="#4469C5"/>
<path transform="translate(953,341)" d="m0 0h110v4l-1 1-113 1-13 4-8 6-9 10-4 9-6 35-7 43-2 12-3 3-1 9-2 6-2 20-6 37-1 7 1 8-13 82-10 64-15 94-1 8v17l5 10 7 6 9 4 7 1 270 1 1 3-1 2h-271l-10-2-10-5-6-5-7-14v-20l12-76 2-12v-25l1-8h-3l-4 16-4 21-2 4-2 14-1 6v7l-2 11-2 3h-2l-1 5-3 7-4 25-15-10-8-3-138-1h-43l-5-2 1-8 7-27 6-26 11-41 4-18 2-5 3-3 27-1h112l40-1-44-2 3-2 9-7 20-20 8-10 4-3 16-8 3-3 1-8-5-4 1-5 5-5 6-5 2-6-8 3-10 9h-2v2l-4 3h-2l1-14 12-77 4-26 3-16 4-6 7-6 11-4 24-1 5-27 5-29 5-12 7-9 9-8 8-4 6-2z" fill="#A3CFFD"/>
<path transform="translate(1063,936)" d="m0 0h17l31 1-2 4-5 5h-33l11 1-1 2-7 4-8 8-31 1v3h-3v2h-3l-2 4-3 3 6-2 4-4 6-5 27-1 3-1 2-4 10-7 3-3 22-1 4-5 4-3h21l24 1 3 1-2 4-5 5h5l5-8 1-1h30l20 1-5 9-1 1h4l2-5 4-4h28l20 1-2 6-2 3h4l1-4 4-4h23l24 1-1 4-3 5-2 1h6l1-5 3-4h25l21 1 1 5h-2v4l2 1v-2l3-1 1-6h18l29 1 1 4-2 5-43 1-5 5-6 9 4 1 1-4 6-8h2v-2l43-1 3-5 3-4h23l24 1 1 2-1 2h-2l-2 6h2l3-6h2v-3h23l2 1-1 5-4 4h-2l-1 4-6 10-1 1h-38l-13-1-1 4-1 3h-2v3h-2l-2 4-2 3-9 1 24 2 32 1-2 6h-2l-2 5-4 4-64-1-19-1 1-6 8-11-8-1 1-5 8-10 1-1 28-1 1-5 4-7-6 7-4 5h-29l-1 5-6 8v4l5 1v3h-2l-2 6-1 2h-2l-1 4-2 1h-30l-17-1v-3l5-5 7-9-4 1-4 4h-2l-2 5-2 2-1 4h-22l-21-1-5-1 1-4 11-11 44-1 1-4 7-7 2-4-5-2-17-1 2-4 5-6h2l2-5-4 1-9 10-1 3-7 1h-21l-7 9h-2l-2 6h-3v2l6-1 2-5 7-7 2-3 44 1v4l-6 8h-2l-2 4-43-1-1 4h-2l-1 3h-2l-2 4-3 5h-40l-7-1 2-5 11-11 19-1h-24l-2 4-10 10-1 2h-9v2h17l16 1 1 2-9 11h-2l-1 4-11 1h15l2-5 7-7 3-4h48v3l-7 8h-2l-2 5-1 2h-23l-14-1-8 1-1 3-3 2-4 7-6 5h-32l-29-2v-2l7-6 7-9 2-1h12l-10-1v-4l-7 5-1 2h-2l-2 4-8 9-3 3-68-2-79-3-36-2-82-3-5-1 1-4 2-2h3l2-4 8-6 6-3h2l1-3 13-10 4-3 30-1-3-2 15-11 4-3h31l-32-1-6-2 1-3 9-5 5-6h35l-4-2 3-3 8-6 3-3 21-1v-3l6-4z" fill="#8EC1F8"/>
<path transform="translate(1544,950)" d="m0 0 4 2 2 20v10l-3 8-25 40-9 15-13 21-16 26-14 23-10 16-9 14-12 20-12 22-6 8-8 5-10 4-10 2-10 1h-33l-60-3-30-2-40-2-224-12-85-4-38-2-48-2-114-5-59-2-163-6-30-2-9-4-5-6v-14l3-12 3-3 1 3 28 2 245 9 54 3 50 2 130 6 40 2 37 2 16 1 24 1 63 3 14 1 52 2 53 3 102 5h38l9-3 7-6 12-18 7-11 12-19 13-21 10-16 10-17 8-13 8-12 16-26 15-24 11-19 6-12z" fill="#60A0E5"/>
<path transform="translate(964,470)" d="m0 0h169l10 1 4 2v10l-15 97-9 53-4 8-2 2-9 1h-181l-9-2-1-2v-12l14-88 9-54 3-11 3-3 3-1z" fill="#60A0E5"/>
<path transform="translate(1657,358)" d="m0 0h20l50 1 16 3 15 5 17 9 11 9 7 7 6 8v3l2 1 5 8 8 16 2 8 1 9v34l-1 9-5 12-5 10-4 6-3 5h-2l-2 5-5 5-3 1-2 4-4 3h-2l-1 3-14 9-14 6-15 3-17 1-28 1h-56l-2-1 1-13 10-68v-14l-4-7-8-6-13-5-10-2-17-1 4-1-3-1 1-14 7-43 1-2 3-1v-5l-4-1h3v-8l2 2 6-1v-7l3-3 7-1z" fill="#EAEEF8"/>
<path transform="translate(867,1037)" d="m0 0h38l64 2 53 2 115 5 67 4 16 1-2 4h-2l-2 4-7 7-9 11-12 14-9 11-4 6-5 5-11 13-2 4-5 5-10 11h-43l-134-6-192-9-11-1 1-4 28-24 7-7h6l5 3 8 2 29 2h34l7-2 1-5-3-3-25-6-16-8-6-2-7 5h-13l-7-2-2-4 5-8h24l1-7 8-6 13-11z" fill="#FCFDFD"/>
<path transform="translate(1425,225)" d="m0 0h180l4 3 2 4 5 4 5 9 1 4v8l-5 10-6 7-5 3-6 1h-19l-18 2-10 3-10 5-6 5-4 6-4 14v14l-1 3-4 2-13 2 2 1 7-1 8-2 2-3 1 11h38v1h-346v-3h2l2-5 5-7 6-16 2-9v-23l2-4 5-5 5-1 41-2 26-1 20-4 16-5 16-8 29-17 10-5z" fill="#EAEEF8"/>
<path transform="translate(1161,217)" d="m0 0h9l19 3 12 5 11 7 9 8 9 12 8 17 3 13v19l-4 15-4 10-8 12h-2v3h351l11 3 8 6 6 7 4 9v11h-4l-3-12-5-9-7-6-9-3-357-1-14 10-14 6-12 3h-22l-12-3-13-5-14-10-9-10-8-14-5-12-2-10v-20l4-15 8-16 7-9 10-9 13-8 18-6z" fill="#C1DEFA"/>
<path transform="translate(953,341)" d="m0 0h110v4l-1 1-113 1-13 4-8 6-9 10-4 9-6 35-7 43-2 12-3 3-1 9-2 6-2 20-6 37-1 7 1 8-13 82-10 64-15 94-1 8v17l5 10 7 6 9 4 7 1 270 1 1 3-1 2h-271l-10-2-10-5-6-5-7-14v-20l12-76 2-12v-25l1-8h-3l-4 16-4 21-2 4-2 14-1 6v7l-2 11-2 3h-2l-1 5-3 7-4 25-15-10-8-3-114-1v-1l114-1 14-54 14-56 4-19h-5v-1l-44-2 3-2 9-7 20-20 8-10 4-3 16-8 3-3 1-8-5-4 1-5 5-5 6-5 2-6-8 3-10 9h-2v2l-4 3h-2l1-14 12-77 4-26 3-16 4-6 7-6 11-4 24-1 5-27 5-29 5-12 7-9 9-8 8-4 6-2z" fill="#EAF6FD"/>
<path transform="translate(953,143)" d="m0 0h21l16 4 14 7 9 7 9 9 7 11 6 13 3 13v20l-4 16-8 16-11 12-8 7-15 8-13 4-6 1h-21l-13-4-9-4-7-5-5-3-10-9-10-15-6-16-2-11v-12l3-17 6-14 9-13 9-9 13-8 11-5z" fill="#C2DEFA"/>
<path transform="translate(1274,944)" d="m0 0h23l24 1-1 4-3 5-2 1h6l1-5 3-4h25l21 1 1 5h-2v4l2 1v-2l3-1 1-6h18l29 1 1 4-2 5-43 1-5 5-6 9 4 1 1-4 6-8h2v-2l43-1 3-5 3-4h23l24 1 1 2-1 2h-2l-2 6h2l3-6h2v-3h23l2 1-1 5-4 4h-2l-1 4-6 10-1 1h-38l-13-1-1 4-1 3h-2v3h-2l-2 4-2 3-9 1 24 2 32 1-2 6h-2l-2 5-4 4-64-1-19-1 1-6 8-11-8-1 1-5 8-10 1-1 28-1 1-5 4-7-6 7-4 5h-29l-1 5-6 8v4l5 1v3h-2l-2 6-1 2h-2l-1 4-2 1h-30l-17-1v-3l5-5 7-9-4 1-4 4h-2l-2 5-2 2-1 4h-22l-21-1-5-1 1-4 11-11 44-1 1-4 7-7 2-4-5-2-17-1 2-4 5-6h2l2-5-4 1-9 10-1 3-7 1h-21l-7 9h-2l-2 6h-3v2l6-1 2-5 7-7 2-3 44 1v4l-6 8h-2l-2 4-43-1-1 4h-2l-1 3h-2l-2 4-3 5h-40l-7-1 2-5 11-11 19-1h-24l-2 4-10 10-1 2h-28l-20-1 1-4 8-7 4-4 46-1 1-4 9-9 1-2h39l-10-1-2-2 10-9 2-4h-4l-1 4-10 10h-27l-17-1 1-4 9-9 32-1 3-1 1-4z" fill="#FBFCFD"/>
<path transform="translate(651,385)" d="m0 0 5 1 7 7 8 16 2 8-1 11-7 14-3 2-2 42-4 12-6 10-8 4h-6v9l3 3 17 3v1h-9l-8-1-3-2v7l-3 7-7 9-2 1h-7l-10-5-9-7-10-10-4-5 3-1 8-16-6-2-11-7-9-8-8-16-4-11-2-12 1-11 4-10 2-4-4-1v-2l8-1h2l2-7 5 1 6-13 6-5 8-3 41-1 12-5z" fill="#FDB27F"/>
<path transform="translate(648,652)" d="m0 0h159l25 1-2 2-40 1h-139l-1 3h-2l-2 9-3 14-9 34-6 23-2 10-8 30v5l4 1h66l115 1 10 4 11 8 7 8 4 10v52l-1 10v106l1 43 1 26v14l-4 1h-23l-1-5 3 2h8l-5-6-4-24-6-26-2-11-2-15-5-25-2-19-1-27v-29l1-20 4-21h2l1-7 5-21 2-7h-2l-4-6-7-4v-3l-3-1h-222l-4-4-2 2h-13v-1h12l1-9 2-3 39-1 8-1 8-30 17-64 8-26z" fill="#4469C5"/>
<path transform="translate(676,861)" d="m0 0h1v5l-2 5-6 32-2 18-1 15v72l1 6 3 45v7l-2-4-4-10-8-11-11-7-5-2-8-1-35-1v-160l1-1 72-1 4-2z" fill="#EAEFF8"/>
<path transform="translate(980,977)" d="m0 0h21l19 1 5 1-1 4-13 11-28 1-1 3-8 6-7 7h-47l26 2h36l-10-1v-3l4-3h2l1-3 9-7 30-1-3-2 11-9 4-4h47l-1 4-12 12-26 1-5 5-10 8-3 4-1 1 26 1h33l16-16h46l3 2-5 5-7 8-4 3-11 1h22l-6-1v-2l8-7 7-7h45l3 2-3 4h-2l-2 4-7 8-4 4h-2l-2 4-8 9-3 3-68-2-79-3-36-2-82-3-5-1 1-4 2-2h3l2-4 8-6 6-3h2l1-3 13-10 4-3 30-1-3-2 15-11z" fill="#F9FBFD"/>
<path transform="translate(645,705)" d="m0 0 10 2 19 5 15 3 9 1h10l1 1 2 12 2 5 5 2 8 1 9-4 5-7 3-8h18l19 2 23 5 6 3-2 9-8 31-3 10-2 1h-163l-5-1 1-9 9-32 8-31z" fill="#5890D2"/>
<path transform="translate(513,848)" d="m0 0h55l44 5 34 3 25 1h5l1 4-3 6-4 2-72 1-1 160h35l11 2 10 6 6 5 8 13 3 10v10l-3 9-3 6h-15v-8l3-10v-7l-5-9-5-6-9-2-85-1-9 2-8 6-5 7-1 3v10l1 6v8l-2 1-21-1-1-4 3-9 3-18 4-9 6-8 7-6 11-5 4-1 39-1v-159l-73-1-5-3-2-4v-7l4-6z" fill="#FB824F"/>
<path transform="translate(757,270)" d="m0 0h23l16 5 11 9 6 9 3 5 2 8v10l-5 15-9 15-6 9-5 14-3 18v21l-10 4-3 2h-15l-5-3-7-1-1-2-1-25-4-16-8-16-10-18-4-11-1-7v-9l6-15 9-11 9-5 8-4z" fill="#DEEEFC"/>
<path transform="translate(460,639)" d="m0 0 9 1 6-1-1 9-4 12-3 4 6 1-1 17v24l1 7 11 4h18l19-1v14l-4 50v10h-1l-1-7-7 3h-10l-13-1-21-7-10-6-8-6-8-10-10-15-4-8-2-9v-28l3-16 6-12 2-3h2l2-4 11-12 10-9z" fill="#EBEFF8"/>
<path transform="translate(927,656)" d="m0 0h417l1 1v10l-1 8-1 1h-423l1-15 1-4z" fill="#A5D0FD"/>
<path transform="translate(834,928)" d="m0 0 6 1v2l6-2h27l27 1 42 1 7 1-2 4-6 4-1 2 5-1v-2l8-6h50v3l-8 6 4 1v-2l6-4 3-3h19l25 1 6 1-1 3-7 5-20 1-15 14h-26l-5 2-13 11h-2v2l-3 1h-35l-10-1-1 4-11 8-5 4h-23l-21-2v-4l1-2h2l1-3 6-2v-4h42l7 1 1-3 10-8 6-5-5 2-5 3h-2v2l-7 5h-2v2h-40l-8-1-4-1-2 1h-27l-1-1v-41z" fill="#AAD3FD"/>
<path transform="translate(771,851)" d="m0 0h5v10l-1 12v23l3 27 4 31 3 11 3 19 3 13v6l-3 1-62 1-2 4-6 3h-2l-1 3h-2v-9l4-17 5-25 6-28 7-28 2-13 3-10 3-18 2-6 1-7 1-1z" fill="#E8EEF8"/>
<path transform="translate(600,703)" d="m0 0h9l16 2 3 1 2 6-13 50-4 14-1 1-8 1-39 1-3 11h-13l-23-6-9-3-1-3 4-48h2v-14l21-4 45-7z" fill="#FB9977"/>
<path transform="translate(1039,757)" d="m0 0h370v13l-1 6h-370l-1-1 1-12z" fill="#62A1E6"/>
<path transform="translate(1603,446)" d="m0 0h11l15 5 9 6 5 6 1 3v14l-12 81-11 71-10 67-16 107-14 91-5 17-6 10-7 7-4 1 3-10 2-4 1-22 5-33 2-14 3-20 3-14 3-21 5-34 6-42 5-29 2-18 3-20 3-16 6-37 1-9 2-9 3-19 1-11 2-10 2-16 2-10 4-30 1-10v-17l-9-6-12-3-5-1z" fill="#60A0E5"/>
<path transform="translate(1115,938)" d="m0 0h21l24 1 3 1-2 4-5 5h5l5-8 1-1h30l20 1-5 9-2 2 19 1-2 5h-3l-2 4-4 4-28 1-6 7-5 5-2 3-45 1-1 2h-2l-1 3-8 7-2 3h-22l-26-1 1-4 10-9 3-3 4-1-10-1 1-4 9-7v-1l-7 3-7 6-1 2h-46l-3-3 6-3 4-4 6-5 27-1 3-1 2-4 10-7 3-3 22-1 4-5z" fill="#77B2F3"/>
<path transform="translate(517,781)" d="m0 0 16 4 8 3v1h-8l-3 1 1 13 2 7 4 11 2 2v3l4 2 9 4 1 1 7 1 2 2 11 2 13 1 6-1 5 1 31 2 24 2 20 2 11 2 2 2v12l-2 9-1 13h-2l1 5-2 22-2 35-1 50 1 22 1 14 1 7v19l4 8v3h2v2h-8l-6-1 1 11 4 1 4 4 2 1h10l10-2 6 8 4 7 8 5 7 5v6l-2 3h-2v2l-9 3-12-1-7-3-8-6-7-6-5-5-10-8v-7l3-6 1-5v-17l-3-45-1-6v-72l2-25 5-31 3-13 1-1v-8h-14l-38-3-48-5-24-4-11-4-9-6-7-7-6-12-2-7-1-8v-12z" fill="#3C63BC"/>
<path transform="translate(1026,518)" d="m0 0 3 3 13 35 3 8 5-5 8-12h3l6 13 15 39 3 8v4l-60 1h-63v-4l26-38 10-14 13-19 10-13z" fill="#FBFCFD"/>
<path transform="translate(651,385)" d="m0 0 5 1 7 7 8 16 2 8-1 11-7 14-3 2-1 22-2-3-4-17-1-11-1-3-21 1-2-1 2-4 4-2v-2l-20 2-12 4-3 6-2 10v12l3 12-2 5-5 1-5-8-3-4-6 1-3 4v6l6 9 8 7 4 8-1 5-2 1-14-8-10-9-8-16-4-11-2-12 1-11 4-10 2-4-4-1v-2l8-1h2l2-7 5 1 6-13 6-5 8-3 41-1 12-5z" fill="#25468D"/>
<path transform="translate(748,793)" d="m0 0h44l2 1 1 3 7 4 3 4v2h2l-1 7-7 28h-2l-1 11-2 10-1 20v37l1 19 2 19 6 31 2 17 4 15 4 21 3 17v2l3 1 2 4h-9l-4-3-3-10-8-32-2-6-7-31-3-19-3-11-4-31-3-27v-23l2-22-5 1h-24l1-4 5-32v-9l-1-3-3-2-2-6z" fill="#3B61BB"/>
<path transform="translate(1054,690)" d="m0 0h308l-1 14-1 4-2 1h-306l-1-5 2-13z" fill="#61A1E6"/>
<path transform="translate(520,651)" d="m0 0h2v30h39l43 1 1-2h3l1-7 2-2h5l-1 6-4 1v3h19v-3l9-2-2 10-6 22-2 2-1-4-19-2h-9l-12 2-63 10h-3v14h-1v-14l-19 2h-18l-11-4-1-1-1-7v-24l2-17 10 1 24 5 8 2 1-9z" fill="#FDB27F"/>
<path transform="translate(1036,798)" d="m0 0h308l1 3-2 14-1 1-307 1-1-1 1-17z" fill="#61A0E5"/>
<path transform="translate(1157,519)" d="m0 0h276l16 1v11l-1 6-2 1h-292v-11z" fill="#62A1E6"/>
<path transform="translate(1239,590)" d="m0 0h293v8l-2 10-42 1h-217l-35-1 2-17z" fill="#61A1E6"/>
<path transform="translate(953,341)" d="m0 0h110v4l-1 1-113 1-13 4-8 6-9 10-4 9-6 35-7 43-2 10-4 1-3-2h-6l-7 6-5 9-8 51-5 33-1 4-8 2-8 6-4 4h-2v2l-4 3h-2l1-14 12-77 4-26 3-16 4-6 7-6 11-4 24-1 5-27 5-29 5-12 7-9 9-8 8-4 6-2z" fill="#72AFF1"/>
<path transform="translate(859,568)" d="m0 0h1v7l-8 54-11 74-12 79-3 18-15-10-8-3-114-1v-1l114-1 14-54 14-56 4-19h-5v-1l-44-2 3-2 9-7 20-20 8-10 4-3 16-8 3-3 1-8-5-4 1-5 5-5 6-5z" fill="#72AFF1"/>
<path transform="translate(1274,944)" d="m0 0h23l24 1-1 4-3 5-2 1 11 1-1 5-5 6-1 3-7 1h-21l-7 9h-2l-2 6h-3v2l6-1 2-5 7-7 2-3 44 1v4l-6 8h-2l-2 4-43-1-1 4h-2l-1 3h-2l-2 4-3 5h-40l-7-1 2-5 11-11 19-1h-24l-2 4-10 10-1 2h-28l-20-1 1-4 8-7 4-4 46-1 1-4 9-9 1-2h39l-10-1-2-2 10-9 2-4h-4l-1 4-10 10h-27l-17-1 1-4 9-9 32-1 3-1 1-4z" fill="#FAFCFD"/>
<path transform="translate(1305,556)" d="m0 0h232l1 3-3 16h-250l-2-2 2-15 1-1z" fill="#62A1E6"/>
<path transform="translate(1589,476)" d="m0 0 5 2 5 9v12l-8 52-2 9-3 25-5 33-1 2-2 18-6 38-1 2-3 24-4 27-2 10-3 25-2 13-4 7-1 8-7 7h-2l-1-5h-2l1-7v-15l16-101 12-75 9-57 5-32 2-16z" fill="#F7FAFD"/>
<path transform="translate(1161,217)" d="m0 0h9l19 3 12 5 11 7 9 8 9 12 8 17 3 13v19l-4 15-4 10-8 12h-2v3h351l11 3 8 6 6 7 4 9v11h-4l-3-12-5-9-7-6-9-3-357-1-14 10-14 6-12 3h-22l-12-3-13-5-14-10-9-10-8-14-5-12-2-10v-20l4-15 8-16 7-9 10-9 13-8 18-6zm-4 6-15 4-10 4-8 6-2 1v2l-4 2-9 10-3 7-5 12-2 8-1 15 2 15 5 13 7 11 9 10 9 7 12 6 16 4h19l17-5 13-7 10-9 6-7 6-11 5-13 2-10v-20l-5-13-7-14-4-5-8-7-10-7-10-5-9-3-6-1z" fill="#378BE7"/>
<path transform="translate(1076,267)" d="m0 0h21l-3 14v20l3 13 8 17 7 9 6 7 10 7 9 4-2 2-5-1-10-5-9-7-8-4v-2l-2 2-4 1h-8l-1-2-13 1-12 2v-3l-104-1 1-2 89-1 8-2-1-4-9-8-5-10-2-7v-13l3-7 6-8 8-7 11-4z" fill="#EAEEF8"/>
<path transform="translate(1364,723)" d="m0 0h147v7l-2 11-1 1h-220l1-13 1-5z" fill="#60A0E5"/>
<path transform="translate(1139,623)" d="m0 0h210l-1 17-2 2h-209v-7z" fill="#62A1E6"/>
<path transform="translate(911,723)" d="m0 0h182l1 1-1 18-3 1h-180l-1-1v-9z" fill="#A7D1FD"/>
<path transform="translate(1376,474)" d="m0 0h174l-2 17-2 1-27 1h-142l-13-1-2-3 2-13 1-1z" fill="#A6D1FD"/>
<path transform="translate(855,566)" d="m0 0h4l-1 6-8 7h-2l-2 5 1 4 4 3-1 8-6 5-17 9-12 14-20 20-6 4-3 1h-80v-1l8-1 12-12h2l2-4 9-11 4-4-1 4-2 4 1 7 1 2 5-1 10-6 23-12 24-11 14-7 5-2 5-8 9-9h2v-2l8-7z" fill="#FEB380"/>
<path transform="translate(922,414)" d="m0 0h160l380 1 119 1 3 1-1 4h-265l-397-2z" fill="#4796EB"/>
<path transform="translate(1165,474)" d="m0 0h184l1 3-2 13-1 2h-186l1-11z" fill="#61A1E5"/>
<path transform="translate(1431,961)" d="m0 0h14l16 1 36 1-1 5-6 9h-38l-13-1-1 4-1 3h-2v3h-2l-2 4-2 3-9 1 24 2 32 1-2 6h-2l-2 5-4 4-64-1-19-1 1-6 8-11-8-1 1-5 8-10 1-1 28-1 1-5 4-6z" fill="#FAFCFD"/>
<path transform="translate(1373,623)" d="m0 0h154l-1 12-2 7h-154l1-12z" fill="#62A1E6"/>
<path transform="translate(881,552)" d="m0 0h5l-2 17-13 81-15 96-8 50-1 8v17l5 10 7 6 9 4 7 1 270 1 1 3-1 2h-271l-10-2-10-5-6-5-7-14v-20l12-76 9-55 10-65 7-44z" fill="#2684E8"/>
<path transform="translate(648,652)" d="m0 0h159l25 1-2 2-40 1h-139l-1 3h-2l-2 9-3 14-9 34-6 23-2 10-8 30v5l4 1h66l115 1v1l-10 1-5-1-1 2v-2l-158 1h137l8 1h12l8 1 1 2-162 1h-64l-4-4-2 2h-13v-1h12l1-9 2-3 39-1 8-1 8-30 17-64 8-26z" fill="#5993D6"/>
<path transform="translate(1355,1011)" d="m0 0h30l26 2 53 1-1 5-3 5h-2v3h-2v3l-3 2-39-1-14-1-1 6-3 1-2 5-4 7h-32l-16-1 1-5 4-6 5-7 2-1-10-1 1-5h2l2-4z" fill="#FAFCFD"/>
<path transform="translate(1200 1e3)" d="m0 0h13l33 2 1 2-9 11h-2l-1 4-11 1h15l2-5 7-7 3-4h48v3l-7 8h-2l-2 5-1 2h-23l-14-1-8 1-1 3-3 2-4 7-6 5h-32l-29-2v-2l7-6 7-9 2-1h12l-10-1 1-3h2l2-4 8-8z" fill="#F9FBFD"/>
<path transform="translate(1369,657)" d="m0 0h153l-1 9-2 9-78 1-73-1v-12z" fill="#60A0E5"/>
<path transform="translate(1550,968)" d="m0 0 3 3v7l1 1v10l-4 11-8 13-11 21-4 5-4 8-8 13-5 8-5 10-8 11-6 8-8 14-6 10-5 9-6 10-10 18-8 11-3 3-10 17-8 10v2l-9 6-5 2-7 1 1 2-7-1-7 1v1l-10-1v2l-13-1-10-3-8-1v-1l29-1 2-1 15-2 13-4 9-5 4-5 10-18 12-21 13-20 11-18 14-23 15-24 13-21 10-17 14-22 12-20 1-4z" fill="#EAF6FD"/>
<path transform="translate(910,177)" d="m0 0 4 2-1 36 2 10 6 11 8 12 8 9 16 8 17 7 4 1h8l18-3 4 2v2l-16 8-17 4h-10l-14-2-16-6-10-7-11-11-7-11-5-14-2-8v-20l2-9 4-11 3-6z" fill="#DDEDFB"/>
<path transform="translate(1110,253)" d="m0 0 4 1 1 1-1 16 3 25 5 12 8 12 10 11 13 9 16 6 5 1h14l12-3 9-2 2 1-1 3-14 8-14 5-5 1h-19l-16-4-12-6-9-7-7-7-9-14-5-13-2-15 1-15 5-16z" fill="#DDEDFC"/>
<path transform="translate(1167,940)" d="m0 0h30l20 1-5 9-2 2 19 1-2 5h-3l-2 4-4 4-28 1-6 7-5 5-2 3h-46l-2-4 11-9 2-3 29-1 6-7 7-7-5-1-2 5h-2l-2 4-5 6h-26l-21-2v-2l11-9 1-2 28-1 5-8z" fill="#F3F8FD"/>
<path transform="translate(1584,478)" d="m0 0h3v11l-2 7-3 24-11 68-7 46-15 94-11 69-3 15-4 10-6 9-9 8-14 7-12 2h-121l-1-5 126-1 12-4 9-6 8-8 5-10 4-18 9-55 9-58 13-82 14-88 6-34z" fill="#338BE9"/>
<path transform="translate(843,506)" d="m0 0h1l-1 12-9 58v8l-7 7-4 7-18 8-16 8-17 8-19 10-8 5-4-1-2-5 1-7 4-2v-5l11-4 9-4 14-7h2l1-2 20-15 9-10 7-10 7-14 7-18 4-13 3-6 4-5z" fill="#EBEFF8"/>
<path transform="translate(1385,690)" d="m0 0h131l-1 14-2 5h-131l2-18z" fill="#62A1E6"/>
<path transform="translate(730,970)" d="m0 0h55l5 23 1 10-3 1-62 1-2 4-6 3h-2l-1 3h-2v-9l4-17 3-15 3-3z" fill="#FBFCFD"/>
<path transform="translate(776,912)" d="m0 0h1l3 29 4 22 1 7-55 1-7 1-2 1 1-9 6-28 1 3 11-7 10-5 3-1v-2l13-6 3-1h7z" fill="#71AEF1"/>
<path transform="translate(664,980)" d="m0 0h1l1 28 1 6 3 45v7l-2-4-4-10-8-11-11-7-5-2-8-1-35-1v-7l5-4 10-6 24-16 4-3h3v-2l7-4 5-3h2v-2z" fill="#71AEF1"/>
<path transform="translate(953,143)" d="m0 0h21l16 4 14 7 9 7 9 9 7 11 6 13 3 13v20l-4 16-8 16-11 12-8 7-15 8-13 4-6 1h-21l-13-4-9-4-7-5-5-3-10-9-10-15-6-16-2-11v-12l3-17 6-14 9-13 9-9 13-8 11-5zm5 5-16 4-14 5-7 6-8 7-7 9-6 12-3 9-1 7v20l4 15 6 12 7 9 10 10 12 7 17 5 9 1h10l17-4 16-8 12-11 7-10 7-14 3-13v-18l-4-16-7-13-5-6-3-5-10-8-16-9-19-3z" fill="#398CE8"/>
<path transform="translate(1371,798)" d="m0 0h124l5 1-1 16-1 1h-132l3-17z" fill="#60A0E5"/>
<path transform="translate(1668,225)" d="m0 0h8l12 6 5 4 4 7 1 15-3 9-5 7-9 4h-15l-10-4-5-4-6-10-1-3v-10l4-8 6-7 10-5z" fill="#EBEFF8"/>
<path transform="translate(758,1131)" d="m0 0h33l306 14 27 1 14 1-4 4-29 1h-21l-16-1-4-1-64-2-57-3-28-1-5-1h-31l-11-1-40-2-13-1-36-2-11-2-8-1z" fill="#61A1E6"/>
<path transform="translate(941,184)" d="m0 0 5 2 1 2 7 3 15 9 11 6 8 5 12 6 3 2v2l-9 4-4 3-12 6-15 9-9 6-5 2-4 3h-3l-1-17z" fill="#436BC6"/>
<path transform="translate(1151,556)" d="m0 0h83l26 1v9l-2 9-1 1h-108l-1-5 2-14z" fill="#A7D1FD"/>
<path transform="translate(1186,258)" d="m0 0h10l7 6 2 5-1 6-4 6-4 3h-9l-3-2h-6l-11 5-9 5-6 4v3l16 6 9 4v2h6l4-4 3-1h8l7 6 2 5-1 7-5 6-4 2h-9l-7-6-2-8-10-3-14-6-9-1-4 3h-8l-6-4-3-6v-7l3-5 5-4 8-1 9 3 22-12 5-1 2-10z" fill="#2B86E8"/>
<path transform="translate(961,988)" d="m0 0 2 2-1 1 2 1 11 1v1l-41 1-14 11-6 5-9 5-6 5-1 2-5 3-1 3 87 3 53 3v1l-16 1v1l-15 1-5-1h-12l14 1v1h-29l-64-2h-38l-11 8-13 11-4 3h-2v5h-1l-1-12v-26l52 1 2-4 5-3 1-2h2l2-4 5-3 1-2 9-4 9-8 5-3 1-2h-16l-7-1 2-2 13 1h36z" fill="#73AFF2"/>
<path transform="translate(757,270)" d="m0 0h23l16 5 11 9 6 9 3 5 2 8v10l-5 15-9 15-6 9-5 14-3 18v21l-10 4-3 2h-15l-5-3-7-1-1-2-1-25-4-16-8-16-10-18-4-11-1-7v-9l6-15 9-11 9-5 8-4zm9 2-13 3-12 6-9 9-3 5v4h-2l-2 7v16l4 12 11 18 5 13 3 9 2 7 5 1h31l3-1 3-18 5-11 14-22 3-10v-18l-6-12-5-5-7-6-10-5-10-2z" fill="#75B1F2"/>
<path transform="translate(879,941)" d="m0 0h39l8 1-1 3-8 6-5 4-30 1-3 3h-3v2h-4l-1 3h-2v3l11-7 5-4h18l25 1 2 2-4 4h-2v2l-7 5h-2v2h-40l-8-1-4-1-2 1h-27l-1-1v-14h47v-2h-19l5-4 12-8z" fill="#F3F8FD"/>
<path transform="translate(744,316)" d="m0 0h9l4 4 1 8 17 2 2-11 3-3h7l8 3 1 1v7l-5 11-7 14-4 3-2 14-1 11-1 1h-18l-3-3v-21l-1-17-1-4-8-1-6-1-1-2v-9l3-5z" fill="#EEF8FD"/>
<path transform="translate(1129,724)" d="m0 0h110l-2 17-1 1h-108v-12z" fill="#61A0E5"/>
<path transform="translate(1094 1e3)" d="m0 0h46l3 2-5 5-7 8-4 3-11 1h22l-6-1v-2l8-7 7-7h45l3 2-3 4h-2l-2 4-7 8-5 4v-2l-68-1-22-1-5-1-26-1v-1l23-1z" fill="#FBFCFD"/>
<path transform="translate(880,993)" d="m0 0h49l-2 4-9 6-5 5-5 2h-3l-2 4-5 3-1 2h-2l-1 3-5 3-4 4-40-1-10-1v-16l2 1 3-2 36-1-14-1-1-2 8-6 7-5z" fill="#F8FBFD"/>
<path transform="translate(1063,936)" d="m0 0h17l31 1-2 4-5 5h-33l11 1-1 2-7 4-8 8-31 1v3h-3v2l-5 1-1 3-5 5h-42l-6-2 1-3 9-5 5-6h35l-4-2 3-3 8-6 3-3 21-1v-3l6-4z" fill="#F9FBFD"/>
<path transform="translate(901,798)" d="m0 0h95v10l-3 9h-95l-1-5h2l1-13z" fill="#A8D2FD"/>
<path transform="translate(951,689)" d="m0 0h22l7 1h32v10l-1 9h-96l-1-1v-7l2-10 1-1z" fill="#A5D0FD"/>
<path transform="translate(908,757)" d="m0 0h90l3 1v14l-1 3-2 1h-94v-11l2-7z" fill="#A5D0FD"/>
<path transform="translate(834,928)" d="m0 0 6 1v2l6-2h27l27 1 42 1 7 1-2 4-7 5-12 1-1 2-9-2h-39l-11 8-5 3 17 1v2h-47v-27z" fill="#B1D6FB"/>
<path transform="translate(1304,1008)" d="m0 0h18l24 1 4 1-2 4-7 10-1 2h-45v4l-4 4-7 11h-21l-27-2v-3l8-9 4-6 42 1 2-1 1-4 4-5 4-4z" fill="#F6FAFD"/>
<path transform="translate(1030,980)" d="m0 0h47l-1 4-12 12-26 1-5 5-10 8-3 4-1 1 26 1v1h-34l-26-2-3-2-10-1v-3l4-3h2l1-3 9-7 30-1-3-2 11-9z" fill="#FCFDFD"/>
<path transform="translate(1427,962)" d="m0 0v3l-4 6-1 4h9v1l-37 1-9 11-1 4h23v1l-15 1-8 12-1 4h19l51 1 13 1-2 3-53-1-26-2h-30l-8 11h-2l-1 5h11l-2 2h-6l-2 4-4 4-3 6-3 3h-28l-17-1-2-1-1-7 6-8h2v-4h45l2-5 8-11-4-1 32-1 1-4h2l2-6 1-2h2v-3l-25-1v-1h19l1-5 6-7 1-4 29-1 7-9z" fill="#73AFF2"/>
<path transform="translate(836,1075)" d="m0 0 6 2 16 8 25 6 4 4-1 5-2 2-6 1h-34l-29-2-10-3-5-5-1-6 5-9 7 1 5 1h13z" fill="#26488F"/>
<path transform="translate(853,680)" d="m0 0 4 1-1 8v25l-13 81-1 7-1 22-2 12-2 2-2-19-4-11-5-7v-9l3-17 5-12h2l3-14v-11l2-10 5-20 5-25z" fill="#FBFCFD"/>
<path transform="translate(1228,341)" d="m0 0h346l11 3 8 6 6 7 4 9v11h-4l-3-12-5-9-7-6-12-4-342-1 2-1v-2z" fill="#2E88E8"/>
<path transform="translate(937,959)" d="m0 0h16l30 1-2 4-10 8h-2v2l-3 1h-35l-10-1-1 4-11 8-5 4h-23l-21-2v-4l1-2h2l1-3 6-2v-4h42l7 1 1-3 10-8 2-2z" fill="#F8FBFD"/>
<path transform="translate(1193,968)" d="m0 0 48 1-1 3-5 3-3 4h-2l-2 5-1 1h-44l-2 4-5 3-4 5h-2l-1 4h-17l-30-3 2-4 8-7 4-3h45l1-5 3-1 2-4 5-5z" fill="#F3F9FD"/>
<path transform="translate(1093,964)" d="m0 0h12l31 2v4l-5 3-1 2h-2l-2 5-1 1 7 2-1 2h-2l-1 3-8 7-2 3h-22l-26-1 1-4 10-9 3-3 4-1-10-1 1-4z" fill="#F3F8FD"/>
<path transform="translate(669,1080)" d="m0 0h6l5 5 2 1h10l10-2 6 8 4 7 8 5 7 5v6l-2 3h-2v2l-9 3-12-1-7-3-8-6-7-6-5-5-10-8v-7z" fill="#24448B"/>
<path transform="translate(676,861)" d="m0 0h1v5l-2 5-6 32-3 24-2 5h-2l-2-4v-18l1-27-2 2v-4l-19 1-12-1h-18l-4 2-2 9-4 4h-1l-1 14h-1v-40l1-1 72-1 4-2z" fill="#EDF7FD"/>
<path transform="translate(881,552)" d="m0 0h5l-2 17-13 81-15 96-8 50-1 8v17l5 11-5 2-6-12v-20l12-76 9-55 10-65 7-44z" fill="#348BE8"/>
<path transform="translate(1221,942)" d="m0 0h28l20 1-2 6-2 3 1 2-32 1-9 9-1 3h44l8-9 2-1 1-3h-7v-1h11l10 1v1l-10 1-7 8-4 3 1 1 16 2v1l-45-1-2 4-8 8v4l-47 1-10 10h-2l-1 4h20l19 1v1l-13 1-7 8-5 6-2-2h-3l7-8 4-4-2-1h-45l-13 13h-2v2l25 1v1h-41l-17-1v-1l28-1 8-7 4-5 3-3-2-2h12l17 1 1-4 5-5 7-5v-3h45l3-5 8-7 3-3h-43l-3-3 23-1 6-7 3-1 1-3-18-1v-1l5-1 2-5z" fill="#76B1F2"/>
<path transform="translate(1486,519)" d="m0 0h57l-1 17-2 2h-73l-1-1 1-14 1-3z" fill="#61A1E6"/>
<path transform="translate(789,276)" d="m0 0 5 2 8 6 5 5 5 8 2 5v18l-3 10-7 11-8 12-5 14-2 14-3 1h-31v-1l21-1 2-21 2-5 5-5 5-11 6-14 4-14-1-19-3-8-7-5z" fill="#C0DDFB"/>
<path transform="translate(1146,589)" d="m0 0 70 1-2 17-1 1-7 1h-64l2-13z" fill="#62A1E6"/>
<path transform="translate(648,652)" d="m0 0h159l25 1-2 2-40 1h-139l-1 3h-2l-2 9-3 14-9 34-6 23-3 5-7 26-4 10-11 1-10 2h-18l-7-2-1-2 46-1v-7l6-20 11-43 10-36 6-18z" fill="#5281D2"/>
<path transform="translate(953,341)" d="m0 0h110v4l-1 1-113 1-13 4-8 6-9 10-4 9-6 35-7 43-2 10-4 1v-9l3-18 2-15 8-46 5-12 7-9 9-8 8-4 6-2z" fill="#348BE9"/>
<path transform="translate(1182,1024)" d="m0 0h29l29 1-1 4-5 8-6 5h-32l-29-2v-2l7-6 4-5z" fill="#F8FBFD"/>
<path transform="translate(1104,323)" d="m0 0 3 4 7 11 4 4v2l5 2 4 4 8 4 9 3 14 2h19l17-5 13-7 10-9 7-9 3-5 1 2-3 9v3h-2v3l9 1v2l340 1v1h-354l-14 10-14 6-12 3h-22l-12-3-13-5-14-10-9-10-6-10 2-1z" fill="#529CED"/>
<path transform="translate(919,161)" d="m0 0 2 1-7 8-7 9-6 12-3 9-1 7v20l4 15 6 12 7 9 9 9 12 7 17 5 9 1h10l17-4 5-1-4 3-5 2-5 5-6 1h-21l-13-4-9-4-7-5-5-3-10-9-10-15-6-16-2-11v-12l3-17 6-14 9-13 6-6z" fill="#388CE8"/>
<path transform="translate(1355,1028)" d="m0 0h38l16 1v1h-9l-1 6-3 1-2 5-4 7h-32l-16-1 1-5 4-6 5-7z" fill="#F5F9FD"/>
<path transform="translate(751,386)" d="m0 0 38 1 1 21-10 4-3 2h-15l-5-3-7-1-1-2v-21z" fill="#72AFF2"/>
<path transform="translate(834,972)" d="m0 0h33l-1 4-6 2-2 4-8 6-13 1 36 1 1 2-2 3-7 4-6 6h-2l-1 3h-22l-1-34z" fill="#FAFCFD"/>
<path transform="translate(1325,946)" d="m0 0h25l21 1 1 5h-2v4l2 1v-2l3-1 1-6h18l29 1 1 4-2 5-43 1-4 2v-3h-43l1-2-4 1-3 3v-4h-8l3-1 1-5z" fill="#DAECFD"/>
<path transform="translate(1431,961)" d="m0 0h14l16 1 36 1-1 5-6 9h-38l-14-2-16-1 1-4 4-6z" fill="#FBFCFD"/>
<path transform="translate(730,970)" d="m0 0h55l3 16-26-1-43-1v-7l3-5 1-1z" fill="#FAFCFD"/>
<path transform="translate(729,1006)" d="m0 0h49l2 2-5 5-3 1v2l-5 3-6 5h-21l-23-1-5-1v-5l9-4 4-1 2-5z" fill="#F9FBFD"/>
<path transform="translate(1330,955)" d="m0 0h9v1l-6 1-2 4h-2l-2 4-5 6h17l6 2-3 6-7 7v4l-45 1-11 11v3l3 2-31 1-9 10-2 5v1h-16l-23-1v-1h34l1-4 5-5 5-6v-1l-33-2v-2h9l2-4 10-10 1-2 5-1h19l17 1v1l-36 1-11 11-2 4h47l5-8 5-4 1-3h43l2-3h2l2-4 4-5v-2l-44-1-7 8-4 6-6 1v-2h3l2-6h2l2-4 5-6h28l1-4 5-6h2l2-4z" fill="#8EC1F7"/>
<path transform="translate(771,851)" d="m0 0h5v10l-1 12v43l-7-1 3-8v-8l-3-5-2 1-3-5-2-19v-5l-4 1-2 5-1-2h-2l1-5-5 4h-4l1-8 1-7 1-1z" fill="#ECF7FD"/>
<path transform="translate(880,993)" d="m0 0h49l-2 4-9 6-5 5-5 2h-3l-2 4-3 1v-3l-21-1-3-2-14-1-1-2 8-6 7-5z" fill="#F8FBFD"/>
<path transform="translate(980,977)" d="m0 0h21l19 1 5 1-1 4-13 11-28 1-1 3-1-3-48 1 1-2 30-1-3-2 15-11z" fill="#F4F9FD"/>
<path transform="translate(1094 1e3)" d="m0 0h46l3 2-5 5-7 8-4 3h-23l-23-2 1-4z" fill="#F8FBFD"/>
<path transform="translate(1043,998)" d="m0 0h28l19 1-2 4-5 2-2 4-8 7h-18l-23-1-8-1 4-5 9-7z" fill="#F6FAFD"/>
<path transform="translate(1430,950)" d="m0 0h23l24 1 1 2-1 2h-2l-2 6h2l3-6h2v-3h23l2 1-1 5-4 4h-2l-1 3v-2h-36l-16-1h-14l-3 2h-2l-3 2 2-5-1-2 3-5z" fill="#F4F9FD"/>
<path transform="translate(1251,1007)" d="m0 0h48v3l-7 8h-2l-2 5-1 2h-23l-23-2v-5l7-7z" fill="#FBFCFD"/>
<path transform="translate(1379,989)" d="m0 0 2 3 5 1v3h-2l-2 6-1 2h-2l-1 4-2 1h-30l-17-1v-3l5-5 7-9z" fill="#FAFCFD"/>
<path transform="translate(1422,974)" d="m0 0h16l4 2h-3l-1 4-1 3h-2v3h-2l-2 4-2 3-17 1h-20v-1l-8-1 1-5 8-10 1-1 28-1z" fill="#F6FAFD"/>
<path transform="translate(777,937)" d="m0 0h2l4 21v9h-48l4-6 15-9 11-8 9-5z" fill="#FCFDFD"/>
<path transform="translate(1335,989)" d="m0 0h18v1l-16 1-4 5h-2l-2 5-2 2-1 4h-22l-21-1-5-1 1-4 11-11z" fill="#F7FAFD"/>
<path transform="translate(525,715)" d="m0 0h6v69l-8-1-7-3 4-50h2v-14z" fill="#FB814D"/>
<path transform="translate(1304,1008)" d="m0 0h18l24 1 4 1-2 4-7 10-1 2h-20l-25-1-1-5 7-8z" fill="#FBFCFD"/>
<path transform="translate(926,976)" d="m0 0h52l-3 3-9 5-9 8h-36l-13-1 4-5 10-7h2v-2z" fill="#F8FBFD"/>
<path transform="translate(970,370)" d="m0 0h8l6 4 2 4v9l-4 8-5 2v2l-6 3-9-1v-2l-4-2-3-5v-9l5-8 5-4z" fill="#A5D0FD"/>
<path transform="translate(1076,370)" d="m0 0 11 2 6 9-1 5-2 5h-2l-2 5-4 3h-2l-1 3h-7l-9-5-3-6 1-9 4-6 6-5z" fill="#A6D1FD"/>
<path transform="translate(1136,984)" d="m0 0h43l2 1v4l-5 3-4 5h-2l-1 4h-17l-30-3 2-4 8-7z" fill="#FAFCFD"/>
<path transform="translate(573,870)" d="m0 0h7l-1 46-1 38-2-4v-13l-2-4-2 10-2-4-2-12-4 1-2-5 6-3h-5l-3-1-5 1 5-5 5-6 6-18v-8l-1-9z" fill="#EFF9FD"/>
<path transform="translate(1020,370)" d="m0 0h8l8 4 3 6-1 7-3 6-6 6h-2l-1 3h-8l-6-4-3-3-2-4 1-9 5-8z" fill="#A5D0FD"/>
<path transform="translate(584,523)" d="m0 0 4 2 7 8 9 8 10 6 3 1h7l5-5 5-7 2-11 3 1v9l-4 10-4 6v6l2 2-1 5-2 1-1 7v5l-7 3-5-1-1-3 1-9-2-4-4-3v-6l-1-2-5-3-1-3-4-2-12-11-5-5-1-4z" fill="#FB7F4B"/>
<path transform="translate(1030,980)" d="m0 0h47l-1 4-11 11h-47l-3-2 11-9z" fill="#F9FBFD"/>
<path transform="translate(1040,963)" d="m0 0h47l-2 4-11 9-1 2h-46l-3-3 6-3 4-4z" fill="#FCFDFD"/>
<path transform="translate(1143,967)" d="m0 0h46l-2 4-5 4-5 7h-46l-2-4z" fill="#FAFCFD"/>
<path transform="translate(1240,987)" d="m0 0h11l13 1 5 1h9l1 3h2v3h-2l-2 4-3 5h-40l-7-1 2-5z" fill="#FAFCFD"/>
<path transform="translate(988,960)" d="m0 0h23l15 1 5 2-1 4-3 1-1 3-5 5h-42l-6-2 1-3 9-5z" fill="#FCFDFD"/>
<path transform="translate(1093,964)" d="m0 0h12l31 2v4l-5 3-1 2h-2l-2 5h-38l-10-1 1-4z" fill="#FAFCFD"/>
<path transform="translate(1186,987)" d="m0 0h45v5l-8 8-1 2h-28l-20-1 1-4 8-7z" fill="#FDFDFD"/>
<path transform="translate(1294,972)" d="m0 0 44 1v4l-6 8h-2l-2 4-44-2 1-5 7-7z" fill="#FAFCFD"/>
<path transform="translate(937,959)" d="m0 0h16l30 1-2 4-10 8h-2v2h-35l-10-1 4-8 4-4z" fill="#FAFCFD"/>
<path transform="translate(1443,979)" d="m0 0h45l-2 5-7 10h-42l-2-1 1-5z" fill="#FAFCFD"/>
<path transform="translate(934,957)" d="m0 0 4 1-18 14-1 2-49-1v4l-6 3-1 2h-2l-1 5 21 2h24l1 2 7 1v1l-33 1-10 6-8 7 30 2v1l-52 1-4 2-1 14h-1v-19l22-1 5-5 8-7 3-1 1-3-36-1-1-2 14-1 9-7 3-3 4-1 1-4h-33l-1 2 1-4h27l5-1 1 1 8 1 40 1v-2l7-5h2v-2zm-27 32 2 1z" fill="#84BBF5"/>
<path transform="translate(1133,950)" d="m0 0h44l1 4-3 1-2 4-5 6h-26l-21-2v-2l11-9z" fill="#FAFCFD"/>
<path transform="translate(885,956)" d="m0 0h18l25 1 2 2-4 4h-2v2l-7 5h-2v2l-34-1-7-1 1-5 5-5z" fill="#F8FBFD"/>
<path transform="translate(983,944)" d="m0 0h20l24 1-1 4-8 7-3 3h-22l-26-1v-3l8-5h2v-2l4-1z" fill="#FAFCFD"/>
<path transform="translate(828,611)" d="m0 0 2 1-2 2-5 38-1 1h-15l-21-1 3-2 9-7 20-20 8-10z" fill="#EBEFF8"/>
<path transform="translate(657,963)" d="m0 0h1l1 7-2 6 5 2 1 2-3 3h-3v2l-10 6-4 1v2l-7 4-27 18h-10l1-5 2-4h2l1-3 7-1 7-6 11-8 12-7 8-4 6-6z" fill="#ECF7FD"/>
<path transform="translate(532,601)" d="m0 0 2 4v55l-1 20-1 1h-10v-30l2-11 6-28z" fill="#FB7F4B"/>
<path transform="translate(1345,975)" d="m0 0h36l6 1-1 5-7 9h-26l-19-1 1-4z" fill="#FBFDFD"/>
<path transform="translate(648,652)" d="m0 0h159l25 1-2 2-40 1h-139l-1 3-1-4 1-1z" fill="#5A91DC"/>
<path transform="translate(1381,960)" d="m0 0h45l-6 12-2 2h-41l-3-2 1-5 4-5h2z" fill="#FBFCFD"/>
<path transform="translate(942,943)" d="m0 0h28l6 1-1 4-9 6-4 3h-23l-18-1-4-2 5-5 6-5z" fill="#FAFCFD"/>
<path transform="translate(1129,229)" d="m0 0 3 1-9 7-5 3-4 4-2 6-2 2-3 7-5 12-2 8-1 15 2 15 5 13 7 11 9 10 10 7 10 5 6 2-4 1-12-4-8-6-6-4-8-10-5-8-4-1-6-14-2-10v-20l4-15 8-16 7-9 10-9z" fill="#3289E8"/>
<path transform="translate(1084,948)" d="m0 0h24l21 1-2 4-10 9h-30l-17-1 2-4 10-7z" fill="#FBFDFD"/>
<path transform="translate(887,462)" d="m0 0h6l3 2h4v2l-3 3-1 9-2 6-2 10-1 1h-18l-1 9-2 2 3-23 3-9 4-6z" fill="#C2DEFB"/>
<path transform="translate(1058,333)" d="m0 0 7 4h26l10-3 9 4 8 9 10 7 9 4-2 2-5-1-10-5-9-7-8-4v-2l-2 2-4 1h-8l-1-2-13 1-12 2v-3l-104-1 1-2 89-1 8-2z" fill="#E2F2FD"/>
<path transform="translate(879,941)" d="m0 0h39l8 1-1 3-12 9h-32l-15-1 3-5z" fill="#F9FCFD"/>
<path transform="translate(1190,966)" d="m0 0 14 1v1l-11 1-4 5-7 6-1 4-45 1-10 9-3 3 17 2v1l-46 1-16 16h-33l-28-1-10-1v-1l13-1 4-5 12-9 2-3h17v1l-13 1-5 5-12 10 7 1 23 1h18l8-7 4-4 4-3v-3l29-1 7-8 6-5v-2l46-1 5-7 6-5z" fill="#78B3F3"/>
<path transform="translate(1284,956)" d="m0 0h42l-1 5-5 6-1 3-7 1-34-2-1-5z" fill="#FBFDFD"/>
<path transform="translate(1583,891)" d="m0 0h1l1 5 2 1-2 13-5 9-2 5-11 13-5 4v3l-4 6-3 1-2 5-4 5-2-9-3-5-2-4 8-5 14-9 8-9 5-12 5-16z" fill="#E9F5FD"/>
<path transform="translate(953,143)" d="m0 0h21l16 4 14 7 9 7 9 9 3 5-3 1-7-8v-2l-4-2-9-4-14-8-19-3h-11l-16 4-14 5-7 6-2-2-4-1 8-6 15-8z" fill="#368CE8"/>
<path transform="translate(1185,952)" d="m0 0h25l19 1-2 5h-3l-2 4-4 4h-27l-11-4-2-3z" fill="#FBFCFD"/>
<path transform="translate(1274,944)" d="m0 0h23l24 1-1 4-3 5-10 2h-23l-2 4-4 4v5l-7-1 5-5 7-8-4-1-1 3v-2h-8l-4-2 3-1 1-4z" fill="#F1F7FD"/>
<path transform="translate(759,335)" d="m0 0h15l1 1v9l-1 6-1 17-2 6-2 2-5-1-3-3-2-16z" fill="#E0EFFC"/>
<path transform="translate(1399,1040)" d="m0 0h25l20 1 1 1v5h-2l-1 4-2 1h-23l-17-1-7-1 2-5z" fill="#F2F8FD"/>
<path transform="translate(1292,1036)" d="m0 0h49l-2 7-4 4h-28l-17-1-2-1 1-4 1-2h2z" fill="#F0F7FD"/>
<path transform="translate(919,161)" d="m0 0 2 1-7 8-7 9-6 12-3 9-1 7v20l4 15 2 4v3h-3l-1 4-6-15-3-14v-12l3-17 6-14 9-13 6-6z" fill="#378CE8"/>
<path transform="translate(574,931)" d="m0 0 2 3 1 3v13l1 6v68l-2 3-5-2 1-8 1-10-1-8v-18l-1-20 1-26z" fill="#E0EFFC"/>
<path transform="translate(1058,503)" d="m0 0 7 1 5 5v10l-5 6-8 4-6-1-5-5-2-7 4-7 6-5z" fill="#F7FAFD"/>
<path transform="translate(834,939)" d="m0 0 39 1-1 4-11 8-4 3h-23z" fill="#F9FBFD"/>
<path transform="translate(941,184)" d="m0 0 5 2 4 6 4 7 3 2v2h-10l-4-2v19l4-2-1 3h-3l1 9 6-2 2 8h3l-1 3v7l3 1-8 4-4 3h-3l-1-17z" fill="#378CE9"/>
<path transform="translate(1063,936)" d="m0 0h17l31 1-2 4-5 5h-33v1h-15l-4-2h2v-3l6-4z" fill="#E6F3FD"/>
<path transform="translate(627,1173)" d="m0 0h47l37 1 12 2-2 3-13 2h-6l-1-1h-42l-13-2-4-3-9 1v-2h-6z" fill="#E9F5FD"/>
<path transform="translate(1216,240)" d="m0 0 1 2h2l3 4 2-2 7 10 7 15 3 13v19l-4 15-4 10-7 10-2-2 3-8 3-9 4-13 1-6v-20l-5-13-7-14-5-5-2-3z" fill="#4672CB"/>
<path transform="translate(1008,934)" d="m0 0h19l25 1 6 1-1 3-7 5h-30l-19-1 1-4z" fill="#E2F1FD"/>
<path transform="translate(723,709)" d="m0 0h9l5 5 1 6-3 7-5 5-9 1-6-4-1-2v-10l3-5z" fill="#61A1E6"/>
<path transform="translate(953,933)" d="m0 0h50v3l-8 6h-46l-3-1 2-4z" fill="#E7F4FD"/>
<path transform="translate(1344,657)" d="m0 0h1v10l-1 8-1 1h-423v-1l421-1 1-1z" fill="#C3DFFB"/>
<path transform="translate(1115,938)" d="m0 0h21l24 1 3 1-2 4-3 4h-17l-33-1 2-5z" fill="#EDF7FD"/>
<path transform="translate(745,281)" d="m0 0 4 4-2 5-4-1-1 7-7 11-3 11v7l1 10-4-1-4-12v-16l2-7h2l1-5 4-6 9-5z" fill="#E8F5FD"/>
<path transform="translate(1221,942)" d="m0 0h28l20 1-2 6-1 2h-51l2-5z" fill="#E7F4FD"/>
<path transform="translate(834,928)" d="m0 0 6 1v2l6-2h27l18 2v3l-4 3-4 1h-15l-29-1-2-1v-2h-4v-5z" fill="#F6FAFD"/>
<path transform="translate(921,643)" d="m0 0h195l-4 1v2l-10 2-19-1-150-1-12-2z" fill="#DCEDFC"/>
<path transform="translate(834,972)" d="m0 0h33l-1 4-6 2-2 4-8 6-13 1-3 1-1-6v-10z" fill="#F8FBFD"/>
<path transform="translate(899,932)" d="m0 0h50l-2 4-7 5h-13l-34-2v-3z" fill="#F9FBFD"/>
<path transform="translate(1024,982)" d="m0 0h4v2l-12 9 2 1 18 1v1l-48 1-9 7-7 7 27 2v1h-53l-26-2-3-2h50l10-10 5-3v-3l29-1 9-8z" fill="#83BAF5"/>
<path transform="translate(1480,952)" d="m0 0h23l2 1-1 5-4 4h-2l-1 3v-2h-36l-16-1h-14l-3 2h-2l-3 2 2-5-1-2 3-5 2-1-1 6h20l5 1 22 1 3-6h2z" fill="#F8FBFD"/>
<path transform="translate(1218,345)" d="m0 0 357 1v1l-348 1-1 1-13 1z" fill="#E4EEFA"/>
<path transform="translate(787,401)" d="m0 0 2 1v6l-12 6h-15l-5-3-7-1v-8z" fill="#61A0E5"/>
<path transform="translate(1075,676)" d="m0 0h230v1l-90 1-55 1h-49l-36-2z" fill="#ECF4FB"/>
<path transform="translate(1377,949)" d="m0 0 47 1-1 7-1 1h-35l-10-1z" fill="#FDFDFD"/>
<path transform="translate(1589,476)" d="m0 0 5 2 5 9v12l-2 14h-1v-6h-12v-11l4-18z" fill="#BCDBFA"/>
<path transform="translate(630,759)" d="m0 0h1l-1 8-2 9h168v2l-2 1h-163l-5-1 1-9z" fill="#72AFF2"/>
<path transform="translate(1007,162)" d="m0 0 4 1 12 12 4 2 8 17 3 13v20l-3 13-3 2v-34l-4-16-7-13-5-6-3-5-6-5z" fill="#4392E7"/>
<path transform="translate(681,616)" d="m0 0 4 1 12 26 5 6v2h-12l-7-8-3-11v-15z" fill="#FB7F4B"/>
<path transform="translate(1240,985)" d="m0 0h19l17 1v1l-36 1-11 11-2 4 21 1 27 1v1h-24l-2 5-7 7-2 5v1h-16l-23-1v-1h34l1-4 5-5 5-6v-1l-33-2v-2h9l2-4 10-10 1-2z" fill="#7BB5F4"/>
<path transform="translate(674,1071)" d="m0 0h13l11 1 1 3-1 10-6 2h-10l-6-4-2-3z" fill="#FDB17F"/>
<path transform="translate(789,1006)" d="m0 0 4 1 3 13v5h-25l-5-1v-2l8-5h2v-2l7-4 4-4z" fill="#F8FBFD"/>
<path transform="translate(812,1067)" d="m0 0 22 1 1 1v8l-6 4h-13l-7-2-2-4z" fill="#FDB17F"/>
<path transform="translate(635,722)" d="m0 0 4 1-1 9-9 34-4 13-3 2-2-1 1-11 3-7 4-18 6-21z" fill="#C0DDFB"/>
<path transform="translate(1439,976)" d="m0 0 50 1v1l-26 1h-20l-2 4-5 7-1 3 43 1-2 4-32-1-32-3v-1l17-1 4-6h2v-3h2l1-4z" fill="#77B2F3"/>
<path transform="translate(1216,951)" d="m0 0h49l1 3-32 1-9 9-1 3h17v1l-6 1h-37l-3-3 23-1 6-7 3-1 1-3-18-1v-1z" fill="#B4D8FD"/>
<path transform="translate(828,611)" d="m0 0 2 1-2 2-5 38-1 1h-15l-6-1v-2l6-3 7-2 3-3h4v-4l-4-3 1-4-1-3h3v-2l-2-1 7-7 2-6z" fill="#E6F4FD"/>
<path transform="translate(501,1168)" d="m0 0h27l10 1 30 1 3 2v3h-14l-8-1-5-2h-9l-11 2h-14l-16-2-1-3z" fill="#EEF8FD"/>
<path transform="translate(1129,229)" d="m0 0 3 1-9 7-5 3-4 4-2 6-2 2-3 7-5 12h-2l-1 6h-2l-1 9-2 9h-1v-14l4-15 8-16 7-9 10-9z" fill="#4A76CD"/>
<path transform="translate(1227,324)" d="m0 0 1 2-3 9v3h-2v3l9 1v2l-2 1-12 1-14 10-11 5h-3l-1-2h-7l3-2 13-5 12-7 10-10z" fill="#3E90E8"/>
<path transform="translate(934,957)" d="m0 0 4 1-18 14-1 2-49-1v4l-6 3-3 3-5 4 2 2-21 1-1-2 14-1 9-7 3-3 4-1 1-4h-33l-1 2 1-4h27l5-1 1 1 8 1 40 1v-2l7-5h2v-2z" fill="#79B3F3"/>
<path transform="translate(834,555)" d="m0 0h1v14l-1 14-6 7-5 8-5-1-1-5 5-9 3-6h2v-7l2-6h3v-5z" fill="#E9F5FD"/>
<path transform="translate(1427,962)" d="m0 0v3l-4 6-1 4h9v1l-37 1-9 11-1 4h23v1l-15 1-9 13-1 3h-7l1-2h2l1-4h2l2-6 1-2h2v-3l-25-1v-1h19l1-5 6-7 1-4 29-1 7-9z" fill="#6DABEE"/>
<path transform="translate(487,1086)" d="m0 0 2 1v2l-5 3-6 4v4l2 1-3 1v-2l-5 2-8 1-8 8-6 4-7 8-2-1 1-6 7-7 13-10 11-7 3-2 9-1v-2z" fill="#EEF8FD"/>
<path transform="translate(1145,844)" d="m0 0 1 2-1 2h-271v-1l268-1z" fill="#6DABEE"/>
<path transform="translate(548,1047)" d="m0 0 11 1-5 4-10 6h-3v2h-3v2l-11 7h-2l-1 2 1-8 6-8 5-4 6-3z" fill="#F3F8FD"/>
<path transform="translate(736,905)" d="m0 0 4 1 1 2v14l1 4 3 2v3l-8 4-6 4h-2l1-10 5-21z" fill="#E9F5FD"/>
<path transform="translate(623,1050)" d="m0 0h19l7 8 4 8v7l-1 5-1-3-4-1-4-10-2-4h-2v-2l-16-4z" fill="#60A0E5"/>
<path transform="translate(1249,276)" d="m0 0 3 3v7l1 3-4 15-3-2v-2h-2v3h2l-2 4-2 2-1-2-1-29 4 1 2-2h2z" fill="#ECF7FD"/>
<path transform="translate(977,948)" d="m0 0h2l-1 6 1 2 8 1 1-4 5-3h9l8 4 8 1-3 4h-22l-26-1v-3l8-5h2z" fill="#E7F4FD"/>
<path transform="translate(466,662)" d="m0 0 1 2 6 1-1 17v24l1 7 7 3v1l-8-1-1-1-1-7v-18h-2l1 4-1 6-3-1-1-5v-21l-1-8h2z" fill="#F0F8FD"/>
<path transform="translate(971,971)" d="m0 0h2l1 3 5 1 32 1 12 1v1h-43l-15 11h-3l2-4 5-4 8-4h-53v2l-6 4-8 6-5 2 2-4 10-8 3-2 1-3h48v-2z" fill="#70ADEF"/>
<path transform="translate(1283,565)" d="m0 0h1v8l1 1 248 1v1h-250l-1-1z" fill="#C3DFFB"/>
<path transform="translate(715,788)" d="m0 0h51l8 1h12l8 1 1 2h-75l-1-1-11-1v-1z" fill="#5890D2"/>
<path transform="translate(1058,945)" d="m0 0h21l24 1v1l-18 1-8 7-6 4-1 2h8v1l-11 1-27 1-7 6h-2l-1 3-4 2-3-1 6-7h3v-2l3-2-4-2 35-1 8-8 7-4-23-2z" fill="#7BB4F4"/>
<path transform="translate(1382,1007)" d="m0 0 1 3h19l51 1 13 1-2 3-53-1-26-2-30-1v-1h27z" fill="#A1CDFB"/>
<path transform="translate(777,937)" d="m0 0h2l2 9v7h-27l5-5 10-6z" fill="#F5F9FD"/>
<path transform="translate(658,976)" d="m0 0 5 3-3 4h-3v2l-10 6-4 1v2l-7 4-13 9h-3l1-4 3-3 9-7 11-7 5-3z" fill="#F3F8FD"/>
<path transform="translate(623,744)" d="m0 0 1 4-6 22-4 10-11 1-10 2h-18l-7-2-1-2 46-1v-7l6-20 1-5z" fill="#4469C5"/>
<path transform="translate(919,161)" d="m0 0 2 1-7 8-7 9-6 12-3 9-2 2h-3v-7l6-14 9-13 6-6z" fill="#4A77CE"/>
<path transform="translate(890,1184)" d="m0 0h46l21 3-2 4-3-2-12 1-19-1-13-1-15-1z" fill="#EAF5FD"/>
<path transform="translate(723,709)" d="m0 0h9l5 5 1 6-2 5-6 1-3-1-1-2-3-2v-5l-6-1 3-5z" fill="#5992D5"/>
<path transform="translate(747,373)" d="m0 0 2 1 1 7 40 1v5h-41l-2-8z" fill="#62A2E6"/>
<path transform="translate(1080,1014)" d="m0 0 1 2h11l12 1v1l12 1h58l5 1-3 4v-2l-68-1-22-1-5-1-26-1v-1l23-1z" fill="#CAE3FC"/>
<path transform="translate(520,651)" d="m0 0h2v25l-1 6-5 1h-7l-1-5 5-5h2l1-9z" fill="#FEFEFE"/>
<path transform="translate(843,506)" d="m0 0h1l-1 12-5 32-5-2 2-10 1-4h-2l-2-3 1-5 5-12 4-5z" fill="#E6F3FD"/>
<path transform="translate(1038,996)" d="m0 0h17v1l-13 1-5 5-12 10 7 1 23 1h18l5-4 5-1-2 4-3 3h-33l-28-1-10-1v-1l13-1 4-5 12-9z" fill="#6EACEE"/>
<path transform="translate(1030,944)" d="m0 0h19l-1 2-17 1-2 4-7 5h-2v2l9 2v1h-41l-6 7-8 4-2-2 13-11 8-1h22l9-9z" fill="#74B0F1"/>
<path transform="translate(692,789)" d="m0 0h16l11 1 1 2h-102l3-2z" fill="#5F9FE4"/>
<path transform="translate(713,714)" d="m0 0h1l1 13 4 4 2 1 9-1 5-5 3-4h3l-1 6-6 7-8 3-8-1-5-3-3-5v-12z" fill="#BDDCFB"/>
<path transform="translate(1216,240)" d="m0 0 1 2h2l3 4 2-2 7 10 7 15 3 13v19h-1l-1-16-2-7h-2l-5-13-7-14-5-5-2-3z" fill="#4A76CD"/>
<path transform="translate(833,934)" d="m0 0h4v2l28 2v1h-22l-9-1v17l23-1 12-9 9-6 11-1v2l-10 2-11 8-5 3 17 1v2h-47z" fill="#7FB8F5"/>
<path transform="translate(983,146)" d="m0 0 7 1 14 7 9 7 9 9 3 5-3 1-7-8v-2l-4-2-9-4-14-8-12-2v-1h6z" fill="#398CE7"/>
<path transform="translate(834,1181)" d="m0 0h39l11 2-1 3v-2l-6 2h-33l-10-2z" fill="#EAF5FD"/>
<path transform="translate(1583,507)" d="m0 0h13v12l-2 13h-1l-1-9h-2l-1-6-5 4-2 5h-1l1-12z" fill="#E5F3FD"/>
<path transform="translate(458,1165)" d="m0 0h12l44 2v1l-20 2-3 2-8-3-3 1-2-1v3h-6v1h-6l-1-3-7-1-1-2z" fill="#E6F3FD"/>
<path transform="translate(1179,950)" d="m0 0h9l-4 2-12 12 6 1v1l-36 1-4 5-8 6 1 4h-32v-1l26-1 3-5h2l1-3 5-2 2-5 4-1 26 1 2-4 5-6 3-3z" fill="#74B0F2"/>
<path transform="translate(971,205)" d="m0 0 1 2 6 1 14 8v2l3-1-2-1 1-2 9 5v2l-7 2v-3l-3 1h-8l-4 1-3-6-6-5v-2l-3-1 2-1z" fill="#2383E9"/>
<path transform="translate(945,939)" d="m0 0 1 2 48 1 5 1v-2h2v2h19l10 1-3 3v-2h-44l-2 3-2-1h-3v-3h-45l2-1v-2h12z" fill="#ADD4FC"/>
<path transform="translate(899,932)" d="m0 0h50l-1 2h-7l-8 4-7-2-14-2-9 3v2h-10v-3z" fill="#EBF6FD"/>
<path transform="translate(1190,966)" d="m0 0 14 1v1l-11 1-4 5-7 6-1 4-45 1h-3l-2-1v-2l46-1 5-7 6-5z" fill="#87BCF5"/>
<path transform="translate(736,963)" d="m0 0 2 1-2 2 47 1 1-4 1 7-59 1 2-2 5-3z" fill="#B0D5FB"/>
<path transform="translate(942,186)" d="m0 0h4l4 6 4 7 3 2v2h-10l-4-2v19l4-2-1 3h-3v10h-1z" fill="#2582E7"/>
<path transform="translate(814,313)" d="m0 0h2v10l-5 12-7 11-6 9-5 14-3 13-4-1h3l1-14 5-14 8-12 7-11 3-10z" fill="#72AFF2"/>
<path transform="translate(982,945)" d="m0 0h18l2 5-12 2-3 5h-8l-2-3 1-4z" fill="#FDFDFD"/>
<path transform="translate(667,1030)" d="m0 0h1l2 29v7l-2-4-4-10-8-11-7-5 1-5 4 1 8 8 4 2z" fill="#5F9EE3"/>
<path transform="translate(1188,950)" d="m0 0h23l-4 2-22 1-6 7 12 6-1 1-49 1 1-2 29-1 6-7 7-7z" fill="#C0DEFC"/>
<path transform="translate(749,396)" d="m0 0 1 2h39l1 3v7h-1l-1-6h-38v6h-1z" fill="#A7D1FD"/>
<path transform="translate(1376,948)" d="m0 0h18l29 1v1h-39l-7-1v8h10v1l-8 1-4 2v-3h-43l1-2 6-1h31l2 2v-2l3-1z" fill="#C4DFFB"/>
<path transform="translate(750,392)" d="m0 0h6v2h33v4h-39l-1-5z" fill="#609BE1"/>
<path transform="translate(780,335)" d="m0 0h11l-1 6-6 11-4 3-2 4v-10l1-13z" fill="#E0EFFC"/>
<path transform="translate(1007,162)" d="m0 0 4 1 12 12 4 2 8 17 2 7v6h-1l-2-10h-3l-1-5h-2l-7-13-5-6-3-5-6-5z" fill="#4973CA"/>
<path transform="translate(1428,953)" d="m0 0 1 2-1 4h20l5 1 14 1h33l-2 1-1 3v-2h-36l-16-1h-14l-3 2h-2l-3 2 2-5-1-2 3-5z" fill="#B2D6FC"/>
<path transform="translate(718,982)" d="m0 0 1 2h43l24 1 2 1-1 2-48-1-21-1z" fill="#ABD3FC"/>
<path transform="translate(1285,988)" d="m0 0 25 1v1l-20 1-11 11v3l3 2h-31l-3-3 26-1 5-8 5-4z" fill="#91C2F7"/>
<path transform="translate(1007,937)" d="m0 0 13 1h8l7 2 4 3-8 1h-11l-15-1-2-2z" fill="#FCFDFD"/>
<path transform="translate(648,652)" d="m0 0h31v1l64 1v1l-65 1h-27l-1 3-1-4 1-1z" fill="#66A5E9"/>
<path transform="translate(1115,940)" d="m0 0 8 2 6-2h8v7h-29l2-5z" fill="#FDFDFE"/>
<path transform="translate(1343,948)" d="m0 0h28l1 4h-2v3h-15l-9-4v-2z" fill="#FBFCFD"/>
<path transform="translate(1140 1e3)" d="m0 0h7l-1 4-12 12h-2v2l25 1v1h-41l-17-1v-1l28-1 8-7 4-5 3-3z" fill="#72AFF2"/>
<path transform="translate(1247 1e3)" d="m0 0h28v1h-24l-2 5-7 7-2 5v1h-16l-23-1v-1h34l1-4 5-5 5-6z" fill="#6DABEE"/>
<path transform="translate(1106,951)" d="m0 0 1 3-4 1v7h-16l-17-1 2-4 6-4 2 1-1 3 3 1h8l9-3h3v-2z" fill="#E7F4FD"/>
<path transform="translate(1240,1020)" d="m0 0 1 3h9v1l-8 1-1 3-1-3h-58l-3 2 2-4 2-1h12l2-1h38v1l-11 1h15z" fill="#C1DFFD"/>
<path transform="translate(928,941)" d="m0 0h5v2l-6 3-11 8-1 3h-30l-14 10-4 1 2-4 3-3h4v-2l5-3 1-1 30-1 11-9 4-1z" fill="#74B0F2"/>
<path transform="translate(794,275)" d="m0 0 4 2 9 7 6 9 3 5 2 8v10l-2 3v-6h-2l-1-11-6-12-1-3-4-2-8-6z" fill="#7AB4F3"/>
<path transform="translate(723,320)" d="m0 0 1 2h2l4 12 11 18 5 13 2 5-1 4-2-4-7-16-11-19-4-9z" fill="#69A7EB"/>
<path transform="translate(1434,991)" d="m0 0 1 2 43 1-2 4-32-1-24-2v-1h13z" fill="#B8DAFC"/>
<path transform="translate(844,769)" d="m0 0h2l-1 14-3 19-1 16-2-3-1-20 2-6 2-17z" fill="#E2F1FD"/>
<path transform="translate(1346,1009)" d="m0 0h29v1h-20l-2 5-6 8h-2l-1 5-24-1v-1h20l2-5 8-11z" fill="#7EB7F3"/>
<path transform="translate(766,1178)" d="m0 0h21l20 2v1l-10 2h-13l-10-1h-7z" fill="#EEF8FD"/>
<path transform="translate(1336,990)" d="m0 0h24v1l-19 1-9 12-3 3 17 1v1h-24v-2h4l1-5 4-6 5-5z" fill="#77B2F3"/>
<path transform="translate(1373,970)" d="m0 0 4 3 40 1v1h-29l-1 4v-3h-42l-2 1v-4-1h25l4 2z" fill="#BBDCFC"/>
<path transform="translate(1216,951)" d="m0 0h49l1 3h-32l-4-2-1 4-1-2-18-1v-1z" fill="#B5D8FC"/>
<path transform="translate(516,737)" d="m0 0h4l-1 18-1 10-3 3-2-8 1-12z" fill="#EFF8FD"/>
<path transform="translate(1272,953)" d="m0 0h11l10 1v1l-10 1-7 8-4 3 1 1 16 2v1l-33-1v-2l12-1 8-9 2-1 1-3h-7z" fill="#73AEEF"/>
<path transform="translate(767,225)" d="m0 0h2l1 2v30l-4 1v-31z" fill="#65AAF2"/>
<path transform="translate(598,869)" d="m0 0h69v1l-61 1-4 2h-4v37h-1v-40z" fill="#FEFEFE"/>
<path transform="translate(1014,1036)" d="m0 0h19l-1 3-4 1h-30l-17-1 3-2h12l6 1 12-1z" fill="#60A0E5"/>
<path transform="translate(1175,977)" d="m0 0h5l-3 5h-46v-1l18-1 7-2h14z" fill="#DDEEFD"/>
<path transform="translate(1430,950)" d="m0 0h23v1l-11 1-1 7h-13l1-8z" fill="#F0F7FD"/>
<path transform="translate(850,732)" d="m0 0h2l-1 13-4 24h-1l-2-9 1-9 3-15z" fill="#E6F3FD"/>
<path transform="translate(1279,984)" d="m0 0 1 2h-3v2l6-1 1-2v2h23v1h-22l-1 4h-2l-1 2v-2h-2l-1-2h-13l-1-1-13-1v-1l8-1v-1z" fill="#CFE6FC"/>
<path transform="translate(860,641)" d="m0 0h2v23l-4 5-3-1v-10z" fill="#FEFEFE"/>
<path transform="translate(1186,987)" d="m0 0v3l-7 7-1 3 27-1 4-1 13 2v2h-28l-20-1 1-4 8-7z" fill="#DDEEFD"/>
<path transform="translate(907,756)" d="m0 0h95l1 1v7l-2 4v-10h-94z" fill="#DAEAFA"/>
<path transform="translate(819,239)" d="m0 0h3v3h-2l-2 5-14 18h-3l1-5 10-13z" fill="#61A3EA"/>
<path transform="translate(849,565)" d="m0 0 4 1-12 12h-2v2l-4 3h-2v-7h2v-3l9-5z" fill="#67A5E8"/>
<path transform="translate(787,401)" d="m0 0 2 1v6l-1-4-12 4-1 2-4-1-1-2v-3h-10l-9-1-1 3v-4z" fill="#72AFF2"/>
<path transform="translate(712,352)" d="m0 0h6l-3 3-22 12h-7l2-3 6-3 5-3h3v-2z" fill="#68A7EA"/>
<path transform="translate(871,998)" d="m0 0 2 1-7 7 33 2 9 1-3 1-2 4-3 1v-3l-21-1-3-2-14-1-1-2 8-6z" fill="#BDDCFC"/>
<path transform="translate(714 1e3)" d="m0 0 1 3h24v1l-13 1-2 4-6 3h-2l-1 3h-2v-9z" fill="#F1F7FD"/>
<path transform="translate(831,318)" d="m0 0h10l21 2 1 3-5 1-26-2z" fill="#77B1EE"/>
<path transform="translate(979,976)" d="m0 0h32l12 1v1h-43l-15 11h-3l2-4 5-4z" fill="#6AA8EC"/>
<path transform="translate(1326,947)" d="m0 0h13l3 2-2 5h-18v-2h2l1-4z" fill="#FCFDFD"/>
<path transform="translate(775,861)" d="m0 0h1l1 15 2 10v5l-1 4-2 13h-1l-1-12v-23z" fill="#4E7DCF"/>
<path transform="translate(630,759)" d="m0 0h1l-1 8-2 9 81 1v1h-83l1-9z" fill="#62A2E6"/>
<path transform="translate(1027,968)" d="m0 0 2 1-2 1zm-1 2m-2 1 2 1-2 3 3 2 30 1v2h-27l-1 3-4-1v-3h-5v-1l-9-1v-1l10-1z" fill="#82B9F5"/>
<path transform="translate(1107,946)" d="m0 0 34 1 15 2v1h-21l-4-1-2 2v-2h-21l-23-1v-1z" fill="#AFD5FC"/>
<path transform="translate(1379,989)" d="m0 0 2 4-11 1h-22l-5-1-6 5 2-4 2-3z" fill="#D0E7FC"/>
<path transform="translate(949,346)" d="m0 0h94v1l-88 1-1 1-9-1z" fill="#DFEEFC"/>
<path transform="translate(1105,322)" d="m0 0 4 5 8 11 7 7 13 8 11 4-4 1-12-4-8-6-6-4-8-10-5-8z" fill="#65A4E8"/>
<path transform="translate(1236,1016)" d="m0 0 3 1-3 1-1 3h-50l1-3 1 2 27-1 2-2h18z" fill="#E6F3FD"/>
<path transform="translate(714,239)" d="m0 0 4 1 10 12 7 10-1 3-5-3-9-13-6-8z" fill="#4192EA"/>
<path transform="translate(791 1e3)" d="m0 0 1 2-9 3-3 3-2-1v-2l-47-1v-1l20-1 37-1z" fill="#9FCCFC"/>
<path transform="translate(928,944)" d="m0 0 2 1-1 5v2h6l2 4h-16l-4-2 5-5z" fill="#E5F3FD"/>
<path transform="translate(626,741)" d="m0 0h1l-1 8-8 30v6h-3v-10l5-15 4-16z" fill="#67A5E9"/>
<path transform="translate(633,711)" d="m0 0h1l-1 9-6 21-5 5-1-3 4-16 4-2z" fill="#5388D7"/>
<path transform="translate(1384,988)" d="m0 0 1 3 41-1 4 2-1 1-17 1h-20v-1l-8-1z" fill="#C6E2FD"/>
<path transform="translate(1235,968)" d="m0 0h21v2h-12l-2 4-8 8-1 2h-5l2-5 8-7 3-3h-6z" fill="#7FB7F4"/>
<path transform="translate(820,352)" d="m0 0 7 1 18 10 3 3-3 1-8-3-11-6-6-4z" fill="#6AA8EA"/>
<path transform="translate(1283,997)" d="m0 0 5 5h9l6 3v1h-20l-5-1 1-4z" fill="#E0F0FD"/>
<path transform="translate(859,568)" d="m0 0h1v7l-2 12-2 1v-5l-3 2-1 3-5-1 1-5 6-5 2-2 2-5z" fill="#5B9EE7"/>
<path transform="translate(849,275)" d="m0 0h5l-2 4-23 8-4-1 5-4z" fill="#4B98EB"/>
<path transform="translate(1147 1e3)" d="m0 0h45v1l-44 1-10 10 2 3 10 1v1h-12l-6-1v-2l8-7z" fill="#C5E1FD"/>
<path transform="translate(999,1013)" d="m0 0h21l-3 2 28 1v1h-34l-26-2v-1z" fill="#BADBFC"/>
<path transform="translate(623,744)" d="m0 0 1 4-6 22-2 5-3 1 1-7 6-23z" fill="#4A76CA"/>
<path transform="translate(917,1031)" d="m0 0h29l14 2v1l-10 1-24-1-9-2z" fill="#63A2E7"/>
<path transform="translate(635,700)" d="m0 0 1 4-1 7h-2l-1 7-3 8-3 3 1-10 4-14z" fill="#4771C8"/>
<path transform="translate(1363,476)" d="m0 0h1l-1 14 1 1 13 1 48 1v1h-62l-2-2z" fill="#EDF4FB"/>
<path transform="translate(1030,944)" d="m0 0h19l-1 2-17 1-2 4-7 5h-2l-1 3-3-2 8-8z" fill="#7DB6F4"/>
<path transform="translate(849,937)" d="m0 0h37l-2 2-7 2-4 2v-3h-32l-7-1v-1h15z" fill="#D0E6FB"/>
<path transform="translate(682,275)" d="m0 0 7 1 21 8 3 3-9-1-20-7z" fill="#4391E7"/>
<path transform="translate(1088,966)" d="m0 0v3l-9 7-2 3-4 1h-16v-2h16l1-3 10-8z" fill="#6FACEF"/>
<path transform="translate(696,318)" d="m0 0h9l-1 3-19 2h-11v-3z" fill="#61A2E8"/>
<path transform="translate(988,960)" d="m0 0h23v1l-22 1-7 8-1 5h16v1h-18l-6-2 1-3 9-5z" fill="#D3E8FC"/>
<path transform="translate(1078,961)" d="m0 0 38 1v1l-23 2-4 2-4-1 2-3h-20v-1z" fill="#99C8F9"/>
<path transform="translate(1480,952)" d="m0 0h23l2 1-1 5-4 3h-9l4-2 1-4-7-1h-9z" fill="#E0F0FD"/>
<path transform="translate(1115,938)" d="m0 0h21l24 1v1l-31 1-8 2-6-2-2-1z" fill="#D8EBFC"/>
<path transform="translate(1024,982)" d="m0 0h4v2l-12 9 2 1 18 1v1h-30l4-2 10-9z" fill="#6EABEE"/>
<path transform="translate(663,1010)" d="m0 0 3 1v10h-12l1-4z" fill="#EAF3FC"/>
<path transform="translate(520,657)" d="m0 0h1v19l-1 5h-5v-7l4-15z" fill="#EEF8FD"/>
<path transform="translate(1436,1011)" d="m0 0h17l13 1-2 3-53-1v-1l25-1z" fill="#BEDCFC"/>
<path transform="translate(1304,1008)" d="m0 0h18l24 1v1l-26 1-5 2-9-2-3-2z" fill="#D7EBFD"/>
<path transform="translate(1279 1e3)" d="m0 0 43 2v1l-18 1-5 7-6 1 2-4 4-5-17-1z" fill="#70ADF0"/>
<path transform="translate(1036,995)" d="m0 0h28v1l-26 1-2 3-3-1v-1l-45-1v-1z" fill="#C0DDFB"/>
<path transform="translate(1291,970)" d="m0 0h10v1l-7 2-7 8-4 6-6 1v-2h3l2-6h2l2-4z" fill="#71AEF1"/>
<path transform="translate(1367 1e3)" d="m0 0h12l-1 3-2 1h-30v-1z" fill="#D7EBFD"/>
<path transform="translate(1332,984)" d="m0 0h3v6h-25l-21-1v-1h39z" fill="#6EACEF"/>
<path transform="translate(1379,958)" d="m0 0h10v1l-7 1-9 11-1 3h-15v-1h11l2-4 5-8z" fill="#74AFEF"/>
<path transform="translate(1221,944)" d="m0 0h12l-1 6h-16v-2z" fill="#FDFDFD"/>
<path transform="translate(574,1171)" d="m0 0h38l1 2-26 1-13-2z" fill="#EDF7FD"/>
<path transform="translate(1080,1014)" d="m0 0 1 2h11l12 1v1l-5 1h-18l-26-1v-1l23-1z" fill="#A9D1FB"/>
<path transform="translate(1387,993)" d="m0 0h4l-2 6-6 8-1 3h-7l1-2h2l1-4h2l2-6z" fill="#66A5EA"/>
<path transform="translate(1293,954)" d="m0 0h22v1l-8 1h-23l-2 4-4 4v5l-7-1 5-5 7-8z" fill="#C0DEFD"/>
<path transform="translate(1577,627)" d="m0 0h2l-1 11-4 26h-1l-1-14 3-8v-12z" fill="#D6EAFD"/>
<path transform="translate(1058,945)" d="m0 0h21l24 1v1l-18 1-7 6-4-1 4-4 3-1-23-2z" fill="#7CB5F4"/>
<path transform="translate(1218,345)" d="m0 0 47 1v1l-38 1-1 1-13 1z" fill="#EAF5FD"/>
<path transform="translate(874,964)" d="m0 0 2 1-1 4 6 1 23 1v1h-29l-8-1-4-3 4-3 2 1 4-1z" fill="#C3E0FC"/>
<path transform="translate(916,273)" d="m0 0 11 7 4 3 8 3-2 2-6-1-10-6-5-4z" fill="#DDEEFD"/>
<path transform="translate(1233,984)" d="m0 0h16v1l-14 1-2 4-2 1v-4h-44v-1l46-1z" fill="#D3E8FC"/>
<path transform="translate(979,945)" d="m0 0 2 1-4 2v2l-6 4-4 2v1l15 1v1h-24l4-3 11-8z" fill="#75B1F2"/>
<path transform="translate(828,611)" d="m0 0 2 1-2 2-4 30h-1v-9l1-7-6-2 6-7 3-7z" fill="#CCE4FB"/>
<path transform="translate(808,1179)" d="m0 0h17l19 1v1l-10 1-2 2-3-1v2h-6v-3l-15-2z" fill="#D6E9FB"/>
<path transform="translate(680,642)" d="m0 0 4 1 6 7 2 2h-14z" fill="#FDFDFD"/>
<path transform="translate(1443,976)" d="m0 0 46 1v1l-26 1h-20l-1 2z" fill="#ADD2F9"/>
<path transform="translate(1061,937)" d="m0 0h8v7h-14l1-3z" fill="#F4F9FD"/>
<path transform="translate(1100,271)" d="m0 0 1 4-2 13 1 21-2-3-2-11h-1v-9l2-9h2z" fill="#64A3E8"/>
<path transform="translate(1163,945)" d="m0 0 2 1h12l3 2 6 1v1h-7l-1 2-1-1-16-1z" fill="#D4E9FD"/>
<path transform="translate(1007,162)" d="m0 0 4 1 11 11v2l4 2 1 7 2 4-1 3-7-13-5-6-3-5-6-5z" fill="#4F85D9"/>
<path transform="translate(1230,952)" d="m0 0h6l-2 1-2 4-7 7-4 1 1 3h-8l5-4 5-6 5-3z" fill="#7CB5F4"/>
<path transform="translate(1140 1e3)" d="m0 0h7l-1 4-12 12-5 1v-2l6-5 4-5 3-3z" fill="#68A6EA"/>
<path transform="translate(925,967)" d="m0 0 2 1-2 4 9 1 32 1v1h-35l-10-1-1 3-1-5z" fill="#B6D9FD"/>
<path transform="translate(1034,217)" d="m0 0 3 2v13l-3 9-2 1v-9z" fill="#446FCA"/>
<path transform="translate(1383,984)" d="m0 0 2 4-1 4h23v1l-16 1-4-1-1 2v-2l-25-1v-1h19l1-5z" fill="#74B0F2"/>
<path transform="translate(1034,968)" d="m0 0 2 1-7 8h44v1h-46l-3-3 6-3z" fill="#CAE3FB"/>
<path transform="translate(859,983)" d="m0 0 2 1-1 3 21 2v1h-6v3l-2-1v-1l-32-1v-1l14-1z" fill="#AED4FD"/>
<path transform="translate(516,720)" d="m0 0 4 1v9l-2 4-2-2-2 1v-5l-2-5z" fill="#E0EFFC"/>
<path transform="translate(647,653)" d="m0 0 4 1-4 10-2 8-2-1-3 3 3-12z" fill="#4976CD"/>
<path transform="translate(475,633)" d="m0 0 2 1-1 8-1-3-6 2-6-1-2-2 10-4z" fill="#F0F9FD"/>
<path transform="translate(1190,966)" d="m0 0 14 1v1l-11 1-4 5-7 6h-2l1-5 7-6z" fill="#6FACEE"/>
<path transform="translate(954,934)" d="m0 0h32l-4 3h-10l-5-1h-8l-6 2-2-2z" fill="#FEFEFE"/>
<path transform="translate(900,249)" d="m0 0h3l3 7 9 12h-5l-9-12z" fill="#4670CA"/>
<path transform="translate(1081,1010)" d="m0 0h2l-2 4-3 3h-33v-2h28l5-4z" fill="#71AEF1"/>
<path transform="translate(834,1008)" d="m0 0h23l-1 2-16 1-4 2-1 14h-1z" fill="#6DAAED"/>
<path transform="translate(906,1014)" d="m0 0 2 1-10 10-1 2 14 2v1h-14l-5-1 1-4 2-2h3l2-4z" fill="#C2DFFD"/>
<path transform="translate(926,976)" d="m0 0h52l-3 3-6 2v-3l-43-1z" fill="#CAE3FB"/>
<path transform="translate(889,969)" d="m0 0h28l-2 1v2l-34-1v-1z" fill="#ECF7FD"/>
<path transform="translate(1145,844)" d="m0 0 1 2-1 2h-63v-1l60-1z" fill="#6BA9EC"/>
<path transform="translate(1399,1029)" d="m0 0h10v1h-9l-1 4v-3l-43 1-5 1 1-3z" fill="#E5F2FC"/>
<path transform="translate(1133,983)" d="m0 0 1 3-11 11 1 2h-8l6-7 6-5 1-2h4z" fill="#6BA9EB"/>
<path transform="translate(814,313)" d="m0 0h2v10l-5 12-5 7-1-4 5-8 3-10z" fill="#6BA9ED"/>
<path transform="translate(1330,1206)" d="m0 0h20l31 1v1l-42 1v-2h-9z" fill="#CAE2FA"/>
<path transform="translate(1334,972)" d="m0 0h9l2 2-4 6-6 5-3-2 6-7v-2z" fill="#7DB6F4"/>
<path transform="translate(774,1017)" d="m0 0 2 1-2 4 21 2 1-4v5h-25l-5-1v-2z" fill="#D2E7FC"/>
<path transform="translate(648,652)" d="m0 0h31v1l-5 1v1h-23l-1 4-1-4 1-1z" fill="#5C98DB"/>
<path transform="translate(990,280)" d="m0 0 3 1-15 6h-21l-10-2v-1l14 1h10l17-4z" fill="#66A5E9"/>
<path transform="translate(977,948)" d="m0 0h2l-1 6 1 4h-12v-3l8-5h2z" fill="#DCEEFD"/>
<path transform="translate(833,934)" d="m0 0h4v2l28 2v1h-22l-9-1v16h-1z" fill="#9AC8F8"/>
<path transform="translate(1186,258)" d="m0 0h10l3 2v3l-10-1-3 2-5 1 2-5z" fill="#4675CE"/>
<path transform="translate(1157,1019)" d="m0 0h17l5 1-3 4v-2h-13l-18-1v-1z" fill="#A5CFFB"/>
<path transform="translate(729,1006)" d="m0 0h49l2 2-4 4h-1v-5h-46z" fill="#E6F3FD"/>
<path transform="translate(855,574)" d="m0 0 2 2-4 2-5 5-1 4 5 1 1-5h3v5l-6 3-5-4 1-5 5-5z" fill="#95C3F4"/>
<path transform="translate(1271,964)" d="m0 0 4 1-3 2 1 1 16 2v1l-33-1v-2l12-1z" fill="#74B0F2"/>
<path transform="translate(1073,953)" d="m0 0h4v2l-6 4-1 2h8v1l-11 1h-12v-2l11-1z" fill="#6FACEF"/>
<path transform="translate(700,1068)" d="m0 0 1 3-4 1h-10l-13-1v9h-2l-1-11 29 1z" fill="#5C98DC"/>
<path transform="translate(1120,962)" d="m0 0 20 2-2 1-1 3-1-2-31-1v-1h15z" fill="#B0D5FB"/>
<path transform="translate(1419,954)" d="m0 0h4l-1 4h-35v-1h24v-2z" fill="#E5F3FD"/>
<path transform="translate(1584,478)" d="m0 0h3v11l-2 7h-2l-1-12z" fill="#437BD5"/>
<path transform="translate(1690,233)" d="m0 0 5 5 2 4-1 4-2-2v2l-5-2-4-6 1-2 5 5z" fill="#EEF7FD"/>
<path transform="translate(484,1167)" d="m0 0h30v1l-20 2-3 2-7-3z" fill="#DFEFFC"/>
<path transform="translate(1397,1043)" d="m0 0 1 2 4 2 9 3v1h-11l-7-1 2-5z" fill="#DDEFFD"/>
<path transform="translate(986,997)" d="m0 0 2 1-9 9-4 3 24 2v1h-17l-10-1v-3l4-3h2l1-3z" fill="#CCE4FC"/>
<path transform="translate(816,625)" d="m0 0v3l-24 24h-6l3-2 9-7z" fill="#F6F8FB"/>
<path transform="translate(778,387)" d="m0 0h11v7h-9l1-5h-3z" fill="#72AFF2"/>
<path transform="translate(1207,1200)" d="m0 0h17l9 1-2 2-12 1-9-2z" fill="#EDF8FD"/>
<path transform="translate(1122,1195)" d="m0 0h17l5 1-2 2h-7l-8 1-5-2z" fill="#EDF7FD"/>
<path transform="translate(961,988)" d="m0 0 2 2-1 1 2 1 11 1v1h-29v-2l11-1z" fill="#71AEF1"/>
<path transform="translate(653,978)" d="m0 0 2 1-8 7-10 5-9 7-2 1 1-4 5-4 7-4 10-6z" fill="#EBEFF8"/>
<path transform="translate(1132,973)" d="m0 0h2l-2 4-2 1 1 4h-32v-1l26-1 3-5z" fill="#6FACEF"/>
<path transform="translate(989,958)" d="m0 0h29l11 2v1h-18l-23-1z" fill="#78B2F1"/>
<path transform="translate(1094,298)" d="m0 0 2 4 5 17v2l4 2-1 3-3-1-6-14-1-4z" fill="#4979D0"/>
<path transform="translate(1296,1015)" d="m0 0 2 1-5 6v4l-8 1-1-2h3l2-5 3-3z" fill="#6CA9EB"/>
<path transform="translate(1029,960)" d="m0 0h37v1l-31 1v3h-3v2l-2-1v-3l-4-2z" fill="#CEE5FC"/>
<path transform="translate(884,938)" d="m0 0h5v2l-10 2-11 8-5 2 6-7 9-6z" fill="#72AFF2"/>
<path transform="translate(1158,961)" d="m0 0h6l4 2v2h-26v-1l11-1z" fill="#D7EBFC"/>
<path transform="translate(820,627)" d="m0 0 4 1v7l-2 4-5-4 1-4-1-3z" fill="#EEF8FD"/>
<path transform="translate(511,1043)" d="m0 0 5 1-6 12-2 3-1-7z" fill="#F2F9FD"/>
<path transform="translate(758,949)" d="m0 0 1 2 22-1v3h-27z" fill="#C0DDFB"/>
<path transform="translate(741,623)" d="m0 0 1 2v7l1 3 17-9 3 1-15 8-3 2-4-1-2-5 1-7z" fill="#FEFEFE"/>
<path transform="translate(500,1075)" d="m0 0 2 4v9h-5l-1-7z" fill="#EFF8FD"/>
<path transform="translate(1399,1034)" d="m0 0 3 1 2 4h-5l-2 5-2 3h-3l1-5 3-5z" fill="#71ADED"/>
<path transform="translate(1346,1029)" d="m0 0h7l-8 12h-2l-1-4 4-5z" fill="#61A1E6"/>
<path transform="translate(1427,962)" d="m0 0v3l-4 6-1 4h9v1h-19v-1l6-2 6-8z" fill="#73AEED"/>
<path transform="translate(1587,865)" d="m0 0 3 3v4l-2 1-1 6-3 3v-10z" fill="#EAF5FD"/>
<path transform="translate(866,978)" d="m0 0 2 1-4 5v2h7l6 2v1l-17-1v-4l1-2h2l1-3z" fill="#E8F4FD"/>
<path transform="translate(928,941)" d="m0 0h5v2l-6 3-11 8-3-1 10-8 4-1zm-16 13 1 2-2-1z" fill="#6DABEE"/>
<path transform="translate(855,588)" d="m0 0 1 3-3 11-5 2 3-14z" fill="#66A4E7"/>
<path transform="translate(1279,1021)" d="m0 0h9l-1 4h-23v-1l12-1z" fill="#D3E9FD"/>
<path transform="translate(1249,940)" d="m0 0h9l10 1v2h-19l-7-1v-1z" fill="#65A4E9"/>
<path transform="translate(725,250)" d="m0 0 5 5 5 7-1 3-5-3-4-6z" fill="#539DEC"/>
<path transform="translate(1211,350)" d="m0 0 2 1-2 4-5 4-9 2-4-1 16-8z" fill="#E2F0FC"/>
<path transform="translate(1528,327)" d="m0 0 2 2-2 4-10 3h-7l-2-2 9-2 10-2z" fill="#EFF9FE"/>
<path transform="translate(846,320)" d="m0 0h16l1 3-5 1-12-1z" fill="#64A4E9"/>
<path transform="translate(903,249)" d="m0 0 4 5 7 9 5 6-4-1-7-7-5-8z" fill="#63A0E4"/>
<path transform="translate(1428,953)" d="m0 0 1 2-1 4h11v1l-7 1-4 3h-2l-3 2 2-5-1-2 3-5z" fill="#A8D1FC"/>
<path transform="translate(749,387)" d="m0 0 1 2h10l6 2-4 2h-13z" fill="#A5D0FD"/>
<path transform="translate(605,1022)" d="m0 0h7l1 5-7 1-5-1 1-4z" fill="#60A0E5"/>
<path transform="translate(714 1e3)" d="m0 0 1 3h24v1l-13 1-2 4-2-1 1-3-9 1z" fill="#AFD4FB"/>
<path transform="translate(883,552)" d="m0 0h3l-1 9-2 7h-2l-1-4z" fill="#4871CA"/>
<path transform="translate(805,339)" d="m0 0m-1 1 2 3-6 9-4 5-1-4 8-12z" fill="#73AFF2"/>
<path transform="translate(997,282)" d="m0 0h2l-2 4-6 4h-12l4-2 13-5z" fill="#DDEEFD"/>
<path transform="translate(854,709)" d="m0 0h2l-1 11-2 12h-1v-8l-1-5z" fill="#DEEFFD"/>
<path transform="translate(456,642)" d="m0 0h2v9l-7-1-3 1 2-4z" fill="#EEF8FD"/>
<path transform="translate(725 1e3)" d="m0 0h26v1l-20 1-4 1-2 5-1-2-4 1 1-2 4-2z" fill="#74B0F2"/>
<path transform="translate(1229,983)" d="m0 0 5 2v1h-38v-2h31z" fill="#70ADF0"/>
<path transform="translate(784,321)" d="m0 0 5 1-1 5-2 3-4-2v-6z" fill="#E0EFFC"/>
<path transform="translate(791 1e3)" d="m0 0 1 2-9 3-3 3-2-1v-2l-7-2v-1l17-1z" fill="#BBDBFC"/>
<path transform="translate(834,972)" d="m0 0h33l-1 4-3 1-2-3-27-1z" fill="#C7E2FC"/>
<path transform="translate(863,969)" d="m0 0 4 1 1 2h-34l-1 2 1-4h27z" fill="#71AEF1"/>
<path transform="translate(834,928)" d="m0 0 6 1v2l4 1h-4l-1 4h-2v-2h-4v-5z" fill="#CCE4FC"/>
<path transform="translate(627,746)" d="m0 0 1 2-4 18-3 3 1-9 4-13z" fill="#A4D0FE"/>
<path transform="translate(723,320)" d="m0 0 1 2h2l4 12v3h-2l-5-11z" fill="#6DABEE"/>
<path transform="translate(1240,301)" d="m0 0h1l2 8v6l-1 2h-3l-1-7z" fill="#E4F0FC"/>
<path transform="translate(1081,980)" d="m0 0h17v1h-14l-1 3-5 4h-3l2-4z" fill="#74B0F2"/>
<path transform="translate(1027,968)" d="m0 0 2 1-2 1zm-1 2m-2 1 2 1-2 3 4 4v2l-3 1v-3h-5v-1l-9-1v-1l10-1z" fill="#9FCBF9"/>
<path transform="translate(988,960)" d="m0 0h23v1l-22 1-7 8-5 1 3-3 6-5z" fill="#D6E9FC"/>
<path transform="translate(765,964)" d="m0 0 16 1 2 2h-29v-1z" fill="#EFF9FE"/>
<path transform="translate(623,744)" d="m0 0 1 4-3 12-3-1 1-8 1-5z" fill="#4770C7"/>
<path transform="translate(697,280)" d="m0 0 10 3 6 3v1l-9-1-9-3z" fill="#4494E9"/>
<path transform="translate(776,271)" d="m0 0h8l10 4 1 3-9-3-10-2z" fill="#68A6EA"/>
<path transform="translate(1126,233)" d="m0 0 4 1-6 4h-2v2l-5 4-4 4 1-5 6-6 5-3z" fill="#4293EA"/>
<path transform="translate(1077,938)" d="m0 0h14l-1 3-10 1-3-3z" fill="#FEFEFE"/>
<path transform="translate(1101,325)" d="m0 0 3 4 4 6-1 2-6-2-1-7z" fill="#D5E9FB"/>
<path transform="translate(1293,1021)" d="m0 0 2 4h25v1h-25l-1 4v-3l-4-1 2-1z" fill="#C3E0FC"/>
<path transform="translate(1230 1e3)" d="m0 0h16l1 2-4 4v-4l-8 1-5-2z" fill="#E4F2FD"/>
<path transform="translate(1186,987)" d="m0 0v3l-7 7-1 3h11v1h-15l1-4 8-7z" fill="#D4E8FC"/>
<path transform="translate(470,689)" d="m0 0h1l1 17 1 7 7 3v1l-8-1-1-1-1-7z" fill="#FEFEFE"/>
<path transform="translate(660,445)" d="m0 0h1v21l-2-3-2-11 2-3z" fill="#5584D0"/>
<path transform="translate(663,962)" d="m0 0h1v19l-4 1 2-3-4-4 4-3z" fill="#E8F5FD"/>
<path transform="translate(1140,964)" d="m0 0 3 1-4 6-5 3-4-1 4-3h2l2-5z" fill="#74AFF0"/>
<path transform="translate(972,979)" d="m0 0 2 1-3 5-6 4h-3l2-4 5-4z" fill="#6EABED"/>
<path transform="translate(1223,964)" d="m0 0 1 3h17v1l-6 1h-15l1-4z" fill="#9FCDFC"/>
<path transform="translate(1058,963)" d="m0 0h29l-2 4-3 2 1-4-25-1z" fill="#E5F3FD"/>
<path transform="translate(983,944)" d="m0 0h20l7 1v1l-5 1-1 2h-3l-1-4h-17z" fill="#EBF6FD"/>
<path transform="translate(1152,940)" d="m0 0h11l-3 6h-2v-2l-5-1z" fill="#F8FBFD"/>
<path transform="translate(1049,937)" d="m0 0h7l-2 4-3 2-5-1 2-4z" fill="#FAFCFD"/>
<path transform="translate(804,600)" d="m0 0h4v2l6-1-4 3-5 1-6-2v-2z" fill="#F2F9FD"/>
<path transform="translate(1234,304)" d="m0 0h1v9l-1 2h-2v6l-2 3h-2l1-5z" fill="#4996EA"/>
<path transform="translate(807,253)" d="m0 0h1l1 6-5 6h-3l1-5z" fill="#74AEED"/>
<path transform="translate(1186,1015)" d="m0 0 1 3-2 3h12l-2 2h-14v-3z" fill="#6FADF0"/>
<path transform="translate(1088,966)" d="m0 0v3l-7 6-4-2 7-6z" fill="#77B2F2"/>
<path transform="translate(982,958)" d="m0 0h7l-6 3-30-1v-1z" fill="#BBDBFB"/>
<path transform="translate(1270,943)" d="m0 0h4l-2 4-2 2v4h-7l4-5 1-3h2z" fill="#66A5EA"/>
<path transform="translate(836,280)" d="m0 0 2 1-1 3-8 3-4-1 5-4z" fill="#539CEA"/>
<path transform="translate(1237,276)" d="m0 0h3l1 6v19h-1l-1-16-2-5z" fill="#4A96E8"/>
<path transform="translate(1243,1013)" d="m0 0h2l-2 4-4 6h-5l2-5 6-4z" fill="#6AA7EA"/>
<path transform="translate(1616,358)" d="m0 0 5 1v1l-8 1-2 9-6 1 1-3h3v-7l2-2z" fill="#EFF9FE"/>
<path transform="translate(1300,1008)" d="m0 0 4 1-5 7-6 1 2-4z" fill="#78B3F3"/>
<path transform="translate(626,741)" d="m0 0h1l-1 8-2 7h-2l-1 3 1-8 3-9z" fill="#61A3EA"/>
<path transform="translate(1344,657)" d="m0 0h1v10l-1 8-1 1h-16v-1l14-1 1-1z" fill="#D7E9FB"/>
<path transform="translate(1577,627)" d="m0 0h2l-1 11-1 7h-1l-1-15z" fill="#D4E9FD"/>
<path transform="translate(715,1016)" d="m0 0 2 1-1 4 13 1v1h-12l-5-1v-5z" fill="#D5EAFC"/>
<path transform="translate(871,998)" d="m0 0 2 1-7 7 11 1v1h-15l-1-2 8-6z" fill="#D2E7FC"/>
<path transform="translate(1370,952)" d="m0 0h6l-1 3h-3v2h-21v-1h19z" fill="#76B2F2"/>
<path transform="translate(1054,942)" d="m0 0 2 1 11 1 4 3h-15l-4-2h2z" fill="#B4D8FC"/>
<path transform="translate(850,990)" d="m0 0h23l1 2-2 3h-2l-1-3-19-1z" fill="#E2F0FC"/>
<path transform="translate(1363,476)" d="m0 0h1l-1 14 1 1 13 1v1h-15l-1-5z" fill="#DAEBFB"/>
<path transform="translate(777,388)" d="m0 0 4 1 1 3-2 1h-8v-3z" fill="#A4D0FE"/>
<path transform="translate(1530,331)" d="m0 0h1l1 6 12 1v2h-13l-1-2z" fill="#EFF9FE"/>
<path transform="translate(1328,1208)" d="m0 0h11l7 1-3 2-3 1-13-2z" fill="#EFF9FE"/>
<path transform="translate(769,1119)" d="m0 0 2 1-7 7 4 3h-8l1-4z" fill="#DDECFB"/>
<path transform="translate(1024,982)" d="m0 0h4v2l-8 6h-3l2-4z" fill="#65A4E9"/>
<path transform="translate(979,945)" d="m0 0 2 1-4 2v2l-6 4-3-1 5-5z" fill="#7AB4F2"/>
<path transform="translate(1095,279)" d="m0 0 2 4-3 12h-1v-14z" fill="#4C79CC"/>
<path transform="translate(815,247)" d="m0 0 1 2-7 9h-1v-6z" fill="#549BE7"/>
<path transform="translate(993,214)" d="m0 0 10 5v2l-7 2-1-6-2-1z" fill="#4A89DE"/>
<path transform="translate(657,963)" d="m0 0h1l1 7-1 7-6 3-2-1 6-7z" fill="#EEF8FD"/>
<path transform="translate(883,937)" d="m0 0 3 1-9 3-4 2v-3l-4-1 1-1z" fill="#C0DEFB"/>
<path transform="translate(1102,983)" d="m0 0h28l-2 4-1-2-25-1z" fill="#ECF7FD"/>
<path transform="translate(1330,955)" d="m0 0h9v1l-6 1-2 4-5 1 2-5z" fill="#6FACEF"/>
<path transform="translate(678,645)" d="m0 0h1v6l-1 1h-22v-1l21-1z" fill="#FEB380"/>
<path transform="translate(899,453)" d="m0 0h2l-1 11h-3v-7z" fill="#4772CA"/>
<path transform="translate(1604,376)" d="m0 0h1v7l-4 1-1 2v-8h4z" fill="#EFF9FE"/>
<path transform="translate(742,357)" d="m0 0 3 4 3 9-1 4-2-4-4-9z" fill="#70ADF0"/>
<path transform="translate(1130,350)" d="m0 0 6 2 12 5-4 1-12-4z" fill="#66A5E9"/>
<path transform="translate(1221,341)" d="m0 0 11 1v2l-2 1h-8l-2-1z" fill="#4369C6"/>
<path transform="translate(1125,308)" d="m0 0h6l4 3v2l-7-1-3-1z" fill="#DBECFC"/>
<path transform="translate(598,1016)" d="m0 0h9l-3 3-7 4z" fill="#D6E6F9"/>
<path transform="translate(1455,1014)" d="m0 0h9l-1 5-3 3-2-6z" fill="#DDEEFD"/>
<path transform="translate(1439,959)" d="m0 0h9l2 1v2l-18-1v-1z" fill="#BADAFC"/>
<path transform="translate(933,941)" d="m0 0 14 1v1l-5 1h-11l2-1z" fill="#C0DEFD"/>
<path transform="translate(622,756)" d="m0 0 1 4-3 12-2-2 1-7z" fill="#69A7EB"/>
<path transform="translate(837,361)" d="m0 0 8 2 3 3-3 1-8-3z" fill="#4A98EB"/>
<path transform="translate(1619,258)" d="m0 0 1 4-6 9-3 1 2-5 5-6z" fill="#EEF7FD"/>
<path transform="translate(1082,999)" d="m0 0h8l-2 4-4 2z" fill="#DAEDFD"/>
<path transform="translate(971,971)" d="m0 0h2l1 3 5 1-1 2-12-1 1-2h2v-2z" fill="#6EABEE"/>
<path transform="translate(762,946)" d="m0 0 2 1-2 3h18v1h-21v-3z" fill="#DEEEFC"/>
<path transform="translate(1160,944)" d="m0 0 1 2 2 1-2 3-15-1v-1l12-1z" fill="#75B1F2"/>
<path transform="translate(731,932)" d="m0 0 6 2-3 3-5 2v-6z" fill="#E0EFFC"/>
<path transform="translate(1582,600)" d="m0 0h1l-1 12-1 6-2-3 1-10z" fill="#CDE5FD"/>
<path transform="translate(1603,446)" d="m0 0h11l7 2-1 2-12-2-5-1z" fill="#63A2E7"/>
<path transform="translate(460,1109)" d="m0 0h5l-1 4h-2v2h-4l1-5z" fill="#E9F5FD"/>
<path transform="translate(1172,1031)" d="m0 0h2l-2 4-3 3h-4l2-4z" fill="#66A5E9"/>
<path transform="translate(1081,1010)" d="m0 0h2l-2 4-3 3-4-1 4-5z" fill="#64A4E9"/>
<path transform="translate(966,976)" d="m0 0h12l-3 3-6 2v-3z" fill="#D6EAFC"/>
<path transform="translate(1270,967)" d="m0 0 13 2 6 1v1l-24-1 4-2z" fill="#6FADF0"/>
<path transform="translate(995,934)" d="m0 0h8v2l-4 3h-3l-2-4z" fill="#FAFCFD"/>
<path transform="translate(1601,774)" d="m0 0h1v9l-2 4h-1v-10z" fill="#EEF8FD"/>
<path transform="translate(743,628)" d="m0 0 4 1 1 4-5 2-1-6z" fill="#EEF8FD"/>
<path transform="translate(897,214)" d="m0 0 2 2 1 5-1 8h-2z" fill="#EBF1F9"/>
<path transform="translate(502,1074)" d="m0 0 3 1-1 7-2 4-1-11z" fill="#E2EFFB"/>
<path transform="translate(807,1063)" d="m0 0 2 2v3l2 1-2 4-4-1z" fill="#6CA7E7"/>
<path transform="translate(899,1009)" d="m0 0h9l-3 1-2 4-3 1v-3l-2-2z" fill="#C0DEFB"/>
<path transform="translate(1379,958)" d="m0 0h10v1l-7 1-4 5h-2l1-5z" fill="#6BA9EC"/>
<path transform="translate(1110,939)" d="m0 0h3v2l-5 5-5 1 6-7z" fill="#67A6EA"/>
<path transform="translate(1585,580)" d="m0 0h1l-1 11-1 7h-1v-14z" fill="#CCE5FD"/>
<path transform="translate(853,583)" d="m0 0h3v5l-6 3-1-3h3z" fill="#7CB5F3"/>
<path transform="translate(1594,361)" d="m0 0 2 1 3 9-1 4v-3h-2l-2-6z" fill="#E1F0FD"/>
<path transform="translate(794,356)" d="m0 0h2l-1 6-2 5h-2l1-7z" fill="#6DAAEE"/>
<path transform="translate(615,1172)" d="m0 0h11l-3 3-4 1-3-2z" fill="#EEF7FC"/>
<path transform="translate(671,1069)" d="m0 0 4 1-1 10h-2z" fill="#84B7ED"/>
<path transform="translate(1326,986)" d="m0 0 4 1-4 2-19-1v-1z" fill="#DCEDFC"/>
<path transform="translate(1034,968)" d="m0 0 2 1-7 8-5-1 3-3 3-1z" fill="#D3E8FD"/>
<path transform="translate(1321,952)" d="m0 0 1 2h6l2 2-4 4v-4h-8l3-1z" fill="#B2D7FD"/>
<path transform="translate(1111,941)" d="m0 0h2l-2 4 14 1v1h-17l2-5z" fill="#E6F3FD"/>
<path transform="translate(912,940)" d="m0 0h15l1 2-1 2-9-2-6-1z" fill="#B5D8FC"/>
<path transform="translate(734,928)" d="m0 0h3l1 5-4 1-3-3z" fill="#FEFEFE"/>
<path transform="translate(512,759)" d="m0 0 2 1 2 7 1 4-2 1-3-5z" fill="#E1EFFB"/>
<path transform="translate(810,330)" d="m0 0 2 1-2 5-4 6-1-4z" fill="#6EACEF"/>
<path transform="translate(1091,280)" d="m0 0 2 1-1 9-1-2-3-1 2-6z" fill="#EEF8FD"/>
<path transform="translate(897,232)" d="m0 0 2 3 4 11v3h-2l-4-12z" fill="#65A4E8"/>
<path transform="translate(811,1180)" d="m0 0h7l5 2v2l-8-1z" fill="#EEF8FD"/>
<path transform="translate(627,1173)" d="m0 0h16l-1 2-9 1v-2h-6z" fill="#EFF9FE"/>
<path transform="translate(1399,1034)" d="m0 0 3 1 2 4h-5v2l-3-1z" fill="#63A2E7"/>
<path transform="translate(722,1010)" d="m0 0h2v2l-6 4-4-1 4-4z" fill="#6AA8EA"/>
<path transform="translate(1133,986)" d="m0 0 2 1-9 9-1 2-3-1 5-5z" fill="#DFEEFD"/>
<path transform="translate(742,959)" d="m0 0 2 1-3 3 1 4h-7l4-6z" fill="#EAF5FD"/>
<path transform="translate(1214,944)" d="m0 0 1 3 2 1-1 4h-9l4-2z" fill="#75B1F2"/>
<path transform="translate(928,941)" d="m0 0h5v2l-6 3-3 2-2-2 5-2z" fill="#73B0F2"/>
<path transform="translate(621,513)" d="m0 0h8l5 1v2h-8l-5-2z" fill="#FB7F4B"/>
<path transform="translate(840,278)" d="m0 0h5l-2 4-7 1 2-4z" fill="#4192EA"/>
<path transform="translate(1099,272)" d="m0 0 1 2-1 3h-2v5l-3-2 1-6z" fill="#4371CC"/>
<path transform="translate(906,1014)" d="m0 0 2 1-11 11v-3l5-5z" fill="#D6EAFD"/>
<path transform="translate(1284,1007)" d="m0 0h15v3l-3 2-1-3-11-1z" fill="#D9ECFC"/>
<path transform="translate(1223 1e3)" d="m0 0 3 3h-13v-2z" fill="#6BA9ED"/>
<path transform="translate(1140 1e3)" d="m0 0h7l-1 4-4 3v-5z" fill="#65A3E8"/>
<path transform="translate(1133,983)" d="m0 0 1 3-7 7-3-1 7-7h2z" fill="#599DE7"/>
<path transform="translate(1261,944)" d="m0 0h8l-2 5-4-1z" fill="#F7FAFD"/>
<path transform="translate(1600,766)" d="m0 0 3 1v7l-4 3z" fill="#DCEDFC"/>
<path transform="translate(629,513)" d="m0 0h6l1 5-3 1-6-2v-1h7v-2h-5z" fill="#FB9C78"/>
<path transform="translate(747,322)" d="m0 0h5v6h-3z" fill="#E0EFFC"/>
</svg>
