<?xml version="1.0" encoding="UTF-8"?>
<svg version="1.1" viewBox="0 0 2048 1366" width="1280" height="1280" xmlns="http://www.w3.org/2000/svg">
<path transform="translate(0)" d="m0 0h2048v1366h-2048z" fill="#FCFCFC"/>
<path transform="translate(706,319)" d="m0 0 2 2 3 12 1 7v9h412l11 4 8 6 6 9 3 9 1 131-1 179-26 1-24-3-12-3 10 28 3 10 3 7 5 16 3 9 6 17v3l-31 1-6 4-4 6v18l4 6 4 3 7 2-2 4-12 10-12 9-14 12-10 9-7 6-7 8-9 10-6 8-11 15-3 6h-2l-1 4-10 17-10 21-9 24-3 11-5 20-4 28v52l-1 1h-108l-6 3-5 5v40l3 5 4 3 3 1 31 1-6 7-1 1-1 21 1 19 1 6 8 1h612l8-1 15-11 25-17 4-3 4 2 10 8h3l-2-4-12-9-1-14v-15h-15l-2-6-5-42-4-42-4-56-2-48-1-46v-70l2-60 1-19 1-7h-11l-9-1-1-2 6-37 1-1 17-1 64-1-20-62-5-17-3-8-8-24v-3l-11 1h-18l2 7h-31l-5-9v-2h8l1-5 10-16 9-10 7-7 14-9 14-7h2v-4l-1-17-6-3-4-5-4-13-1-5v-18l-6-3-7-8-3-6-1-5v-7l3-7 4-4 8-1 10 4 5 1 17-5 14-1 10 2 8 5 6 7 3 8 1 4 2 21 5 12 7 8 8 7 9 12 5 11 2 8v21l8 6 10 9 7 7 11 15 10 19 6 18 3 15 1 9v21l-3 21-5 15-6 10-8 7-10 3h-3l4 20 10 54 14 68 14 62 13 54 15 59 14 50 6 22-9 2 11 26 8 19-2 4-14 12-11 9-14 12-6 5h-2v2h278l-1 3-282 1-11 9-3 2 1-12-57 1h-1261l-313-1v-3l166-1 14-13 11-9 13-12 8-7 14-12 3-3 5 1 25 9-3 10-13 37h30l1-14 4-38 9-3 10-1-4 28-1 12v16h2v-20l5-37 55-11 23-4 1-11 11-80v-9l-3-18v-39l3-22 2-9v-13l1-11-2 1h-20l-12-4-8-7-3-6-1-10 3-12 8-16 9-12 8-10 10-11 7-8 24-24 8-7 11-10 11-9 8-6 6-4 2-33-6-2-9-8-7-14-2-9v-11l4-13 6-8 7-6 8-4 4-1h15l-1-152 1-123 4-11 6-8 11-7 9-2h49l1-4 1 4h82l-3-18-2-7z" fill="#80A4FD"/>
<path transform="translate(1255,671)" d="m0 0 26 1 26 5 10 3-3 11-14 43-12 37 32 1 7 4 4 6 1 3v15l-4 7-8 5h-3l25 25 8 7 15 15 8 7 14 14 11 14 10 15 13 24 10 25v3h82l2 1 1 4 2 40 5 62 5 47 3 20 15 1 2 29 13 10v4l-4-1-11-9-5 2-11 8-22 15-8 6-8 1h-615l-5-2-2-6-1-24 1-16 7-7-30-1-6-3-4-4-1-3v-40l7-7 5-2h108v-52l4-28 5-20 5-16 8-21 11-23 6-10 4-7h2l1-4 7-10 8-11 10-11 7-8 8-9 8-7 14-12 13-10 14-11 3-4-7-1-7-6-2-4v-18l4-6 5-4 2-1h31l-8-23-5-17-3-8-4-10-10-30v-2l8 1 17 3 11 1 28-1 32-5 19-4 5-1 27-4z" fill="#FBC24B"/>
<path transform="translate(1572,419)" d="m0 0 13 1 10 5 7 8 3 8 1 4 2 21 5 12 7 8 8 7 9 12 5 11 2 8v21l8 6 10 9 7 7 11 15 10 19 6 18 3 15 1 9v21l-3 21-5 15-6 10-8 7-10 3h-3l4 20 10 54 14 68 14 62 13 54 15 59 14 50 6 22-9 2 11 26 8 19-2 4-14 12-11 9-14 12-6 5h-2v2h278l-1 3-282 1-11 9-3 2 1-12-57 1h-1261l-313-1v-3l166-1 14-13 11-9 13-12 8-7 14-12 3-3 5 1 25 9-3 10-13 37h30l1-14 4-38 9-3 10-1-4 28-1 12v16h2v-20l5-37 55-11 23-4 1-11 11-80v-9l-3-18v-39l3-22 2-8 5 5 7 6 9 3h12l17-4 16-6 18-8 19-10 12-6h3l5 6 8 5 9 3 10 1 19-2h30l12 3 9 6 6 9 3 11 2 17v35l-2 77-32 2-25 5-8 2-1-1-3-91-17 5-16 3-20 2-7 44-12 83-4 15-6 12-10 12-14 10-10 5h143l-1-34v-20l3-1 37-1h15l2 9 8 7 9 7-4 4-15 9 1 3 14-8 6-4 4 1 11 9 14 11 8 7 32 1h703l8-1 15-11 25-17 4-3 4 2 10 8h3l-2-4-12-9-1-14v-15h-15l-2-6-5-42-4-42-4-56-2-48-1-46v-70l2-60 1-19 1-7h-11l-9-1-1-2 6-37 1-1 17-1 64-1-20-62-5-17-3-8-8-24v-3l-11 1h-18l2 7h-31l-5-9v-2h8l1-5 10-16 9-10 7-7 14-9 14-7h2v-4l-1-17-6-3-4-5-4-13-1-5v-18l-6-3-7-8-3-6-1-5v-7l3-7 4-4 8-1 10 4 5 1 17-5z" fill="#1E3E87"/>
<path transform="translate(1427,182)" d="m0 0h2l-5 27h-2v17l-2 15-3 22-7 85-5 66-4 38-2 4v9l-3 8-1 8v7l-4 20v3l7-8 8-13h2l1-4h2l1-4h2l2-4 3-5h2l2-4 2-2 2-5 12-14 25-25 8-7 13-11 17-13 15-10 16-10 7-3 18-10 24-12 25-10 30-10 18-5 2 1-12 34-3 9-7 20-5 18-7 22v7l-10 35-1 4h-3l-3-12-1-15-3-10-4-6-6-5-7-3-13-1-16 3-9 3-5-1-10-4-8 1-3 1-3 9v7l3 9 4 6 6 5 4 2v18l4 16 4 6 7 4v17l2 1-4 4-16 8-13 9-12 12-11 17-3 7h-8l5 10 31 1-3-6 1-2h29l11 34 3 8 18 57 4 12v3l-16 1-48 1-17 1-6 38 20 2-2 49-1 37v70l1 46v20h-75l-9-1-8-21-8-17-11-19-10-14-12-14-15-15-8-7-15-15-8-7-15-15-4-3v-2l10-5 4-7v-15l-4-8-7-4-32-1-1-2 12-36 15-46 3-8-8-1-16-4-12-2-26-1-18 1-28 4-18 4-29 5-10 1v-217h1l1 27 6-21 3-8h2l1-5 8-21 11-25 3-9 7-13h2l2-5 8-14 3-7 6-9 5-5 8-13h2l1-4h2l1-4h2l1-4h2l2-5h2l2-5h2l2-4 14-15 36-36 11-9 5-5 8-7 7-5 7-3 12-9 19-12 21-12 23-12 8-4h2l1-3h3z" fill="#FBFBFC"/>
<path transform="translate(573,921)" d="m0 0h3l5 6 8 5 9 3 10 1 19-2h30l12 3 9 6 6 9 3 11 2 17v35l-2 77-32 2-25 5-8 2-1-1-3-91-17 5-16 3-20 2-7 44-12 83-4 15-6 12-10 12-14 10-10 5h143l-1-34v-20l3-1 37-1h15l2 9 8 7 9 7-4 4-15 9 1 3 14-8 6-4 4 1 11 9 14 11 8 7 32 1h703l8-1 15-11 25-17 4-3 4 2 10 8h3l-2-4-12-9-1-14v-15h45l3 32 2 24v8h103l3-22 4-25 9 3 11 4v-4l-9-3-11-4-8-24v-2l47-12 3 4 16 39 1 4-10 9-11 9-14 12-11 9-3 1v2h278l-1 3-282 1-11 9-3 2 1-12-57 1h-1261l-313-1v-3l166-1 14-13 11-9 13-12 8-7 14-12 3-3 5 1 25 9-3 10-13 37h30l1-14 4-38 9-3 10-1-4 28-1 12v16h2v-20l5-37 55-11 23-4 1-11 11-80v-9l-3-18v-39l3-22 2-8 5 5 7 6 9 3h12l17-4 16-6 18-8 19-10z" fill="#1D3D87"/>
<path transform="translate(341,687)" d="m0 0h1l2 16 4 58 4 42 5 34 7 33 9 30 10 26 11 24 12 22 14 23 16 23 15 20 3 7v13l-9 65-1 5-12 3-62 12h-4l-1 14-3 23-1 20h-2l-1-4v-12l3-28 2-11-9 1-8 2-5 47-1 5h-30l1-5 14-40 1-2-9-2 1-2-9-6-13-11-9-9-7-8-12-15-14-20-1-7h-2v-3h-2l-1-5h-2l-13-24-12-23-13-29-14-34-19-51-22-61-15-39-13-31-8-18 2-1 35 9 36 12 24 10 25 12 25 14 10 6v2l5 2 14 9v2l4 2 8 5 3 3 5 4 5 2 15 14 8 7 7 7 7 8 11 13 6 8-9-28-7-30-5-29-4-34-4-51-2-29z" fill="#FCFCFC"/>
<path transform="translate(1507,961)" d="m0 0h6l2 1 1 4 2 40 5 62 5 47 3 20 15 1 2 29 13 10v4l-4-1-11-9-5 2-11 8-22 15-8 6-8 1h-615l-5-2-2-6-1-24 1-16 7-7-30-1-6-3-4-4-1-3v-40l7-7 5-2h108v-16l4 2 31 29 14 11 13 10 18 11 23 12 19 8 18 6 24 6 24 4 22 2 36 1 27-1 24-3 27-5 20-6 25-10 14-8 13-9 10-8 16-16 11-14 10-15 10-19 8-21 6-22 5-25 4-28z" fill="#F1B142"/>
<path transform="translate(608,477)" d="m0 0h483v107h-483z" fill="#FCFCFC"/>
<path transform="translate(1518,583)" d="m0 0h30l11 34 3 8 18 57 4 12v3l-16 1-48 1-17 1-6 38 20 2-2 49-1 37v70l1 46v20h-75l-9-1-8-21-8-17-11-19-10-14-12-14-15-15-8-7-15-15-8-7-15-15-4-3v-2l10-5 4-7 2-5h2l13-29 14-29 17-34 12-22 5-8 12-7 11-6 17-8 10-5 17-7h2l-1 6-4 12-1 10 3 12 5 6 6 2h6l8-4 3-3h2l2-6 9-19 1-6-5-1-1-8-4-2-1-8h-7l-1-9-3-1-6 5-2 2-3-4-8-25-3-11v-3l24-1 5 4 1 2 31 1-3-6z" fill="#FCFCFC"/>
<path transform="translate(1655,322)" d="m0 0 2 1-12 34-3 9-7 20-5 18-7 22v7l-10 35-1 4h-3l-3-12-1-15-3-10-4-6-6-5-7-3-13-1-16 3-9 3-5-1-10-4-8 1-3 1-3 9v7l3 9 4 6 6 5 4 2v18l4 16 4 6 7 4v17l2 1-4 4-16 8-13 9-12 12-11 17-3 7h-8l3 6-1 3-3-4h-24l9 30 4 11h2l7-6 4 2v9l7-1 1 1v8l5 2v8l5 1-1 9-11 22-8 6-5 2-10-1-7-6-3-8-1-8 2-11 5-15-28 12-16 8-10 6-11 6-5 3-14 27-10 19-19 38-16 36-2 2-2-1-1-11-4-8-7-4-32-1-1-2 12-36 15-46 3-8-8-1v-4l14-20 9-14 8-13 7-12 10-19 9-19 11-28 8-23 3-10 10-14 8-13h2l1-4h2l1-4h2l2-4 3-5h2l2-4 2-2 2-5 12-14 25-25 8-7 13-11 17-13 15-10 16-10 7-3 18-10 24-12 25-10 30-10z" fill="#FBFCFC"/>
<path transform="translate(714,618)" d="m0 0 3 1v13l-5 16 7 1 9 5 7 7v6l-10 19-4 8 1 4 6 4-1 6-10 22-10 24-18 42-7 14-8 9-11 7-10 5-11 2-38 2 1 25v32l-1 17-15 5-32 16-15 8-25 11-20 6-6 1h-12l-9-3-10-9-2-4v-13l1-11-2 1h-20l-12-4-8-7-3-6-1-10 3-12 8-16 9-12 8-10 10-11 7-8 24-24 8-7 11-10 11-9 8-6 6-4 2-35 8-15-4-8v-7l4-5 7-1 6-12 7-6 9-3h7l3 5 2 7 1 10 8 3 1 2v6l-3 3h-3v14l-4 10-7 5h-2v21l26 2 39 6 2-6 9-15 14-25 15-26 6-12 11-37 4-10 4-1 1 2 1 13 2 1 1-10 7-13z" fill="#EA7647"/>
<path transform="translate(1572,419)" d="m0 0 13 1 10 5 7 8 3 8 1 4 2 21 5 12 7 8 8 7 9 12 5 11 2 8v21l8 6 10 9 7 7 11 15 10 19 6 18 3 15 1 9v21l-3 21-5 15-6 10-8 7-10 3h-3l2 8-1 5-25 4-33 3-40 2h-20l-42-2-9-1-1-2 6-37 1-1 17-1 64-1-20-62-5-17-3-8-8-24v-3l-11 1h-18l2 7h-31l-5-9v-2h8l1-5 10-16 9-10 7-7 14-9 14-7h2v-4l-1-17-6-3-4-5-4-13-1-5v-18l-6-3-7-8-3-6-1-5v-7l3-7 4-4 8-1 10 4 5 1 17-5z" fill="#EA7647"/>
<path transform="translate(1255,671)" d="m0 0 26 1 26 5 10 3-3 11-14 43-12 37 32 1 7 4 4 6 1 3v15l-4 7-8 5-226 1-9-3-6-7-1-2v-18l4-6 5-4 2-1h31l-8-23-5-17-3-8-4-10-10-30v-2l8 1 17 3 11 1 28-1 32-5 19-4 5-1 27-4z" fill="#FBC24B"/>
<path transform="translate(550,1103)" d="m0 0h1v9l-6 39-5 15-7 11-7 8-14 10-10 5h143l-1-34v-20l3-1 37-1h15l2 9 8 7 9 7-4 4-15 9 1 3 14-8 6-4 4 1 11 9 14 11 8 7 32 1h703l8-1 15-11 25-17 4-3 4 2 10 8h3l-2-4-12-9-1-14v-15h45l3 32 2 24v8h103l3-22 4-25 9 3 11 4v-4l-9-3-11-4-8-24v-2l47-12 3 4 16 39 1 4-10 9-11 9-14 12-11 9-3 1v2h278l-1 3-282 1-11 9-3 2 1-12-57 1h-1261l-313-1v-3l166-1 14-13 11-9 13-12 8-7 14-12 3-3 5 1 25 9-3 10-13 37h44l96 1 31-1 10-3 11-8 6-5 9-13 9-19 12-35 6-10z" fill="#0F214A"/>
<path transform="translate(1181,869)" d="m0 0h32v27l17 2 17 4 12 5-4 17-5 19-9-3-17-5-15-2h-10l-13 3-6 4-2 4v11l5 7 19 10 28 11 11 6 9 7 9 9 6 12 3 14v10l-3 14-7 14-9 10-9 7-13 6-10 3h-6v33h-31v-30l-16-1-21-5-13-5-4-2 1-8 8-29 5 1 15 6 17 4 6 1h18l13-4 6-5 3-7-1-8-4-7-8-6-15-7-24-9-16-9-13-12-6-10-4-16 1-14 4-13 7-11 9-9 11-7 15-6 7-1z" fill="#FCFCFC"/>
<path transform="translate(608,477)" d="m0 0h483v107h-483zm20 14v79h443v-78l-1-1z" fill="#DBDBDE"/>
<path transform="translate(1562,809)" d="m0 0 11 3 18 7 2 2 8 36 9 38v5 3l5 18 11 44 6 26 12 44 24 91v4l28-7h2l8 24v2l6 1 14 6v4l-6-1-14-6-1 12-5 32-1 3h-103l-4-44-1-19 1-1h17l-2-63-1-56-1-126-16-69-20-7-7-3z" fill="#FBC24B"/>
<path transform="translate(1507,961)" d="m0 0h6l2 1 1 4 2 40 5 62 5 47 3 20 15 1 2 29 13 10v4l-4-1-11-9-5 2-11 8-22 15-8 6-8 1h-28l-76-1 3-2 10-3 10-4 12-7 13-10 7-7 9-13 7-14 5-15 6-26 3-21 1-15v-26l-2-24-5-28-6-23z" fill="#FBC24B"/>
<path transform="translate(1514,750)" d="m0 0h1v39l-1 37v70l1 46v20h-75l-9-1-8-21-8-17-11-19-10-14-9-11 1-2 12-5 26-13 16-12 12-11 9-8 7-8 10-12 2-4h2l2-4 12-18 11-18z" fill="#FBFBFC"/>
<path transform="translate(1179,754)" d="m0 0h114l-3 11-2 6 32 1 7 4 4 6 1 3v15l-4 7-8 5-226 1-9-3-6-7-1-2v-18l4-6 5-4 2-1h31l-4-12v-5z" fill="#E97647"/>
<path transform="translate(848,1086)" d="m0 0h93v1l-12 1 3 32 5 27 7 22 10 21 5 8v2l-20 1h-62l-5-2-2-6-1-24 1-16 7-7-30-1-6-3-4-4-1-3v-40l7-7z" fill="#FBC24C"/>
<path transform="translate(1518,583)" d="m0 0h30l11 34 3 8 18 57 4 12v3l-16 1-48 1-18 1v-2h-6l-2-3-3-14 11-22 2-9-5-1-1-8-4-2-1-8h-7l-1-9-3-1-6 5-2 2-3-4-8-25-3-11v-3l24-1 5 4 1 2 31 1-3-6z" fill="#CFDDFC"/>
<path transform="translate(1532,481)" d="m0 0h2l2 3 4 13 4 5 6 3v17l2 1-4 4-16 8-13 9-12 12-11 17-3 7h-8l3 6-1 3-3-4h-24l9 30 4 11h2l7-6 4 2v9l7-1 1 1v8l5 2v8l5 1-1 9-11 22-8 6-5 2-10-1-7-6-3-8-1-8 2-11 5-15-28 12-16 8-10 6-11 6h-3l2-6 12-21 11-19 14-23 12-19 8-12 12-17 13-18 14-17 9-11 16-17z" fill="#FBFBFC"/>
<path transform="translate(744,386)" d="m0 0h199l13 1v35h-212z" fill="#CFDEFD"/>
<path transform="translate(660,900)" d="m0 0h8l13 3 10 5 10 9 6 9 4 10 1 6 2 56 3 91v7l-16-2-9-1-2-1v-29l1-41v-42l-2-19-3-10-5-8-7-6-11-4-5-1h-27l-20 2h-9l-10-3-10-6-5-6 15-7 9-3z" fill="#1D3D87"/>
<path transform="translate(1572,419)" d="m0 0 13 1 10 5 7 8 3 8 1 4 2 21 5 12 7 8 8 7 9 12 5 11 2 8v18l-1 3-24 2h-14l-5-7-3-9-1 3 2 9 2 5h-11l-6-13-4-17-1-9v-9l2-14 1-2 8-2 3-4 1-8-3-5-2-1h-9l-6-8-3-2-5 1-14 6-12 1-10-3-7-7-4-8-1-5v-7l3-7 4-4 8-1 10 4 5 1 17-5z" fill="#0E1F46"/>
<path transform="translate(1432,962)" d="m0 0h29l3 7 6 26 4 27 1 15v26l-2 23-4 23-6 23-7 17-7 11-8 10-7 7-14 10-11 6-10 4-8 2-3 1h-15l4-3 11-6 13-9 11-10 8-10 8-14 6-15 6-22 5-34v-52l-4-27-7-29z" fill="#DC9C46"/>
<path transform="translate(1640,1023)" d="m0 0 2 4 18 69 8 30v4l28-7h2l8 24v2l6 1 14 6v4l-6-1-14-6-1 12-5 32-1 3h-59z" fill="#F9FAFC"/>
<path transform="translate(750,1040)" d="m0 0h70l5 3 2 2v47l-5 5h-73l-5-5v-47l4-4z" fill="#CFDEFD"/>
<path transform="translate(750,832)" d="m0 0h70l6 3 1 2v46l-4 5-3 1h-70l-5-3-1-2v-47l4-4z" fill="#CFDEFD"/>
<path transform="translate(751,934)" d="m0 0h63l9 1 4 4v47l-5 5h-74l-4-5v-47l4-4z" fill="#CFDEFD"/>
<path transform="translate(884,934)" d="m0 0h66l7 2 3 5v39l-1 7-4 4h-74l-4-4v-49l3-3z" fill="#CFDEFD"/>
<path transform="translate(648,831)" d="m0 0 40 1 5 3 1 1v48l-3 4-3 1h-71l-5-4-1-4v-43l2-4 29-2z" fill="#CFDDFC"/>
<path transform="translate(882,832)" d="m0 0h71l5 3 1 1v49l-3 3-5 1h-69l-5-4-1-20v-13l1-16z" fill="#CFDEFD"/>
<path transform="translate(749,730)" d="m0 0h73l4 4 1 3v43l-2 4-4 2h-71l-4-2-2-4v-44z" fill="#1E3E88"/>
<path transform="translate(881,730)" d="m0 0h73l5 5v46l-5 5h-72l-5-4v-48z" fill="#1E3E88"/>
<path transform="translate(1014,730)" d="m0 0h72l5 4 1 12v26l-8 4-4 5-2 5h-63l-4-2-2-4v-44l3-5z" fill="#1D3D87"/>
<path transform="translate(296,1143)" d="m0 0 5 1 25 9-3 10-13 37h44l88 1 1 1 21 1v1h-84l-313-1v-3l166-1 14-13 11-9 13-12 8-7 14-12z" fill="#0E2048"/>
<path transform="translate(928,1087)" d="m0 0h28l1 1 5 32 5 20 6 15 8 12 9 10 10 9 14 9 2 2v3h-57l-10-18-8-18-6-22-4-22-3-32z" fill="#DC9C46"/>
<path transform="translate(883,1040)" d="m0 0h69l4 1 1 45-1 1h-52l-28-1v-24l1-18 3-3z" fill="#CFDDFC"/>
<path transform="translate(1567,453)" d="m0 0 5 1 6 7 1 2h9l5 5 1 7-3 6-4 3h-6l-2 16v9l3 19 2 7v4l-6 4-11 2-9-3-6-7-4-9h2v-4l-1-17-6-3-4-5-4-13-1-5v-16l1-2h9l10-2z" fill="#F4B273"/>
<path transform="translate(565,669)" d="m0 0h7l3 5 2 7 1 10 8 3 1 2v6l-3 3h-3v14l-4 10-7 5-5 1-14 1 15 9-2 1-16-3-20-3v19h-1v-20l1-13 8-15-4-8v-7l4-5 7-1 6-12 7-6z" fill="#F8B776"/>
<path transform="translate(1179,754)" d="m0 0h114l-3 11-2 7h-156l-11-1-3-5-2-6v-5z" fill="#DC9C46"/>
<path transform="translate(1038,634)" d="m0 0h40l8 4 5 7 1 4v13l-3 8-7 6-3 1h-42l-8-4-4-5-2-8v-9l3-9 5-5z" fill="#1D3D87"/>
<path transform="translate(929,634)" d="m0 0h40l7 3 6 7 2 8-1 13-5 8-8 4h-41l-8-4-4-5-2-5v-14l3-8 6-5z" fill="#1E3E88"/>
<path transform="translate(1562,809)" d="m0 0 11 3 18 7 2 2 8 36 9 38v5 3l5 18 11 44 6 26 7 25v3h-31l2 87v31h-16v-1h15l-2-63-1-56-1-126-16-69-20-7-7-3z" fill="#F6BB4D"/>
<path transform="translate(533,652)" d="m0 0h13l11 4 9 6 6 7-12 2-8 5-6 9-3 6-7 1-3 4v7l4 6-2 5-7 14-6-2-9-8-7-14-2-9v-11l4-13 6-8 7-6 8-4z" fill="#0E1F47"/>
<path transform="translate(1592,1148)" d="m0 0 2 2 14-1h32v51h-44l-4-44z" fill="#FBC14A"/>
<path transform="translate(1561,589)" d="m0 0 5 1 14 13 11 9 14 11 2 2-1 7-10 27-3 7-6-2-13-7h-3l-10-32-10-30 3-3z" fill="#FBB773"/>
<path transform="translate(665,1095)" d="m0 0h22v19h3v-18l16 1 11 2v22l-20 6-2-1-1-9h-26l-21 2-3 1-1 9-13-1-8-2v-22l17-5 16-3z" fill="#1E3E88"/>
<path transform="translate(714,618)" d="m0 0 3 1v13l-5 16 7 1 9 5 7 7v6l-10 19-4 5-40-10-2-2 11-37 4-10 4-1 1 2 1 13 2 1 1-10 7-13z" fill="#FABA7A"/>
<path transform="translate(1482,620)" d="m0 0 4 2v9l7-1 1 1v8l5 2v8l5 1-1 9-11 22-8 6-5 2-10-1-7-6-3-8-1-8 2-11 5-14 6-9 7-9z" fill="#FBB774"/>
<path transform="translate(1666,732)" d="m0 0 2 2 3 17v4l-25 1h-16l-40-2-38-5-29-5-4-1-2 1v-4l31 1h20l40-2 33-3z" fill="#0E1F47"/>
<path transform="translate(1015,832)" d="m0 0h55l-5 5-12 11-8 7-10 10-14 15-6 8-4-2-2-3v-45l4-5z" fill="#1D3D86"/>
<path transform="translate(552,932)" d="m0 0 2 1-10 12-5 5-12 11-14 9-12 5-7 2h-14l-10-3-8-6-7-6v-8l3-13 5 5 7 6 9 3h12l17-4 16-6 18-8z" fill="#0E1F46"/>
<path transform="translate(668,1116)" d="m0 0h22l4 1 4 22v5l-14 1-39 1-1-1-1-16v-9l4-2z" fill="#FAB774"/>
<path transform="translate(326,1154)" d="m0 0h18v12l-3 29-1 5h-30l1-5 14-40z" fill="#F8B776"/>
<path transform="translate(547,1138)" d="m0 0h1l1 36 4 11 7 8 7 5v2l-67 1 3-3 12-6 13-10 8-11 5-10 4-15 1-7z" fill="#F8F9FC"/>
<path transform="translate(1562,809)" d="m0 0 11 3 18 7 2 2 8 36 9 38v5 3l5 18 10 40-1 2-4-1h-14l-1-71-16-69-20-7-7-3z" fill="#F0F3FA"/>
<path transform="translate(617,730)" d="m0 0h34l-8 16-7 11-3 6-12-1-10-2 1-26z" fill="#1D3D86"/>
<path transform="translate(1013,509)" d="m0 0h14l6 7 1 2v18l-4 8-8 7-7 2h-6l1-5 9-2 6-5 4-8-7 4h-8l-6-4-3-7 1-8z" fill="#779AF3"/>
<path transform="translate(981,509)" d="m0 0h11l5 4 3 7v14l-3 8-6 7-10 4h-7l1-4 9-3 6-4 3-6v-2l-6 3h-7l-6-4-2-3v-11l4-7z" fill="#7EA1FB"/>
<path transform="translate(341,687)" d="m0 0h1l2 16 4 58 4 42 5 34 7 33 9 30 10 26 11 24 12 22 14 23 16 23 15 20 2 3-1 3-13-17-13-18-13-20-14-24-12-23-11-26-12-36-7-28-6-34-4-34-4-51-2-29z" fill="#C9CFE3"/>
<path transform="translate(526,1019)" d="m0 0h38l-1 11-2 11-4 1-14-8-14-11z" fill="#0E1F46"/>
<path transform="translate(1464,476)" d="m0 0h2l-3 41-4 36-2 15 15-22 12-16 8-10 9-11 12-13h2v-2l8-7 7-7 4-2 1 5-1-2-11 9-11 11-7 8-12 14-11 14-14 19-11 16-15 23-7 11-1-2 11-18 7-12 3-14 5-43 3-40z" fill="#DCDBDD"/>
<path transform="translate(617,1040)" d="m0 0h2l1 22 1 6v29l-6-1-3-3-1-9v-38l4-5z" fill="#CADAFD"/>
<path transform="translate(1760,840)" d="m0 0h2v47l-2 29-3 22 12-22 8-13 6-9 3-6h2l1-4 5-6v3l-13 20-13 22-12 23-8 16-13 28-6 14-1-4 11-25 12-26 4-17 3-27 1-19z" fill="#DCDBDD"/>
<path transform="translate(407,697)" d="m0 0 3 3 12 22 8 15 11 23 11 24 10 24 3-26 5-24 8-24 8-18 3-2-2 6-10 25-6 20-4 24-1 10v15l-4 3-7-19-16-36-17-35-12-22-3-5z" fill="#D6D7DE"/>
<path transform="translate(1415,263)" d="m0 0h1v13l-6 72-5 66-4 38-2 3v-10l4-42 9-117z" fill="#BFC9E7"/>
<path transform="translate(1862,758)" d="m0 0h7l6 4 1 3v8l-6 6-6 1-5-3-4-5v-7l5-6z" fill="#EDF0F9"/>
<path transform="translate(373,622)" d="m0 0h9l2 1v2h2l2 4v8l-7 6h-7l-5-4-2-4v-6l4-6z" fill="#E5EBF9"/>
<path transform="translate(1348,440)" d="m0 0 8 1 4 3 1 3v7l-3 5-4 2h-8l-6-7v-6l4-6z" fill="#E6EBF9"/>
<path transform="translate(1485,580)" d="m0 0h32l4 9v2h-31l-5-9z" fill="#0E2048"/>
<path transform="translate(668,1116)" d="m0 0h20l1 2-9 4-29 9-3-1-1-3v-7l7-3z" fill="#E97949"/>
<path transform="translate(1562,809)" d="m0 0 11 3 18 7 2 2 8 36 9 38v5l-5-1v-8l-16-69-20-7-7-3z" fill="#80A4FE"/>
<path transform="translate(371,900)" d="m0 0h2l10 26 11 24 12 22 14 23 16 23 15 20 2 3-1 3-13-17-13-18-13-20-14-24-12-23-11-26-5-14z" fill="#DCDBDD"/>
<path transform="translate(1596,578)" d="m0 0 4 2 2 5-5 4-20 11-8-6 1-3 23-12z" fill="#0E2049"/>
<path transform="translate(1018,512)" d="m0 0 6 1 4 5 1 9-5 5-6 1-5-3-2-4 1-9z" fill="#F8FAFD"/>
<path transform="translate(984,512)" d="m0 0 5 1 4 4 1 2v9l-5 4-6 1-4-2-2-4v-9z" fill="#FAFBFD"/>
<path transform="translate(1842,1092)" d="m0 0 1 3-12 19-13 16-7 8-19 19-17 13-13 8-17 9-16 7-3-1 38-19 12-8 14-11 12-11 9-9 9-11 8-10 2-4h2l2-5z" fill="#DCDBDD"/>
<path transform="translate(1463,885)" d="m0 0h7l5 5v8l-6 5h-6l-5-4-1-2v-6l4-5z" fill="#FDFDFD"/>
<path transform="translate(346,1014)" d="m0 0 5 1 11 5-2-5h2l18 27 11 17 15 24 19 32v2h-2l-14-24-15-24-14-22-14-21-18-10z" fill="#D8D9DE"/>
<path transform="translate(428,614)" d="m0 0 4 2 11 9 10 9 8 7 8 8 8 7 11 12 7 8 7 9h2v6l-1-3-4-2-9-11-15-16-25-25-22-18z" fill="#D9D9DD"/>
<path transform="translate(1533,372)" d="m0 0 2 1-30 20-13 10-11 9-14 12-13 12-11 11-7 8-9 10v-3l12-14 25-25 8-7 13-11 17-13 15-10z" fill="#D0D4E1"/>
<path transform="translate(253,1076)" d="m0 0 5 5 8 11 7 9 8 10 12 13 11 11 14 11 2 3-5-2-6-4-13-11-9-9-7-8-12-15-14-20z" fill="#D8D8DE"/>
<path transform="translate(1760,840)" d="m0 0h2v47l-2 29-3 21-2 1 1-13 2-20 1-19z" fill="#DCDBDD"/>
<path transform="translate(1596,669)" d="m0 0 5 2 5 3v7l-4 17-3-3-3-10z" fill="#0E1F46"/>
<path transform="translate(1464,476)" d="m0 0h2l-3 41-4 36-2 13h-2l1-13 4-36 3-40z" fill="#DCDBDD"/>
<path transform="translate(1760,763)" d="m0 0 2 1-32 32-9 11-11 13-13 18-4 6-1-3 12-17 11-14 9-10 9-11 12-11z" fill="#CBD1E2"/>
<path transform="translate(1565,504)" d="m0 0h2l-2 6-7 8-8 4v-17h9z" fill="#0E2049"/>
<path transform="translate(1800,1030)" d="m0 0 5 1 4 4-1 7-4 3-7-1-3-4 1-7z" fill="#DDDCDE"/>
<path transform="translate(304,1057)" d="m0 0 7 1 3 4-1 6-3 3-5 1-5-3-1-7z" fill="#E0DFE0"/>
<path transform="translate(1201,499)" d="m0 0 7 1 3 5-1 5-5 4-6-1-3-6 2-6z" fill="#DEDDDF"/>
<path transform="translate(362,1143)" d="m0 0h4l-1 14-3 23-1 20h-2l-1-4v-12l3-28 2-11z" fill="#80A4FE"/>
<path transform="translate(1423,732)" d="m0 0h8l4 5-1 5-5 4-6-1-3-4 1-7z" fill="#DFDEE0"/>
<path transform="translate(315,847)" d="m0 0 4 2 13 12 10 9 14 15 9 11 7 10-1 2-13-16-12-14-17-17-8-7-6-5z" fill="#D5D6DF"/>
<path transform="translate(1502,660)" d="m0 0 1 4-3 14-5 13-2-1-2-9 10-20z" fill="#80A4FE"/>
<path transform="translate(694,1117)" d="m0 0 15 1 8 1v2l-20 6-2-1z" fill="#0F214B"/>
<path transform="translate(1508,1149)" d="m0 0h36l1 2-7 1h-31l-18-1v-1z" fill="#DD9746"/>
<path transform="translate(250,886)" d="m0 0 4 2 12 11 8 7 7 7 7 8 8 9-1 2-8-8-7-8-19-19-11-9z" fill="#C1CBE6"/>
<path transform="translate(642,1119)" d="m0 0h1v10l-13-1-7-2 2-2z" fill="#0F214A"/>
<path transform="translate(565,734)" d="m0 0h3v12l-14-7-4-4z" fill="#0E2048"/>
<path transform="translate(719,1167)" d="m0 0 3 3-10 7-12 7-2-4 16-10z" fill="#DFE6FA"/>
<path transform="translate(1463,883)" d="m0 0h7l6 5 1 2v8l-6 6-7 1-6-4-3-4 1-8 5-5zm0 2-5 4-1 2v6l4 5 2 1h6l6-5v-8l-5-5z" fill="#DCDBDD"/>
<path transform="translate(1660,946)" d="m0 0h3v2l-6 3-5 1h-23l-3-1 1-3h26z" fill="#80A4FE"/>
<path transform="translate(288,1179)" d="m0 0h4l-1 5-10 16h-5l4-8z" fill="#DCE4F9"/>
<path transform="translate(1777,1165)" d="m0 0m-1 1m-1 1v3l-13 8-17 9-16 7-3-1 38-19z" fill="#DCDBDD"/>
<path transform="translate(503,375)" d="m0 0 2 2 4 13 6 11 9 11 11 8-3 1-9-7-8-8-8-14-4-11z" fill="#CDD2E2"/>
<path transform="translate(1516,949)" d="m0 0 13 2h23l-1 3-6 1h-15l-12-2-2-1z" fill="#80A4FE"/>
<path transform="translate(1605,1149)" d="m0 0h35v2l-15 1h-19l-12-1v-1z" fill="#DC9C46"/>
<path transform="translate(341,687)" d="m0 0h1l2 16 1 17v17l-2-4-2-29z" fill="#C2CCE6"/>
<path transform="translate(1455,566)" d="m0 0 2 2 3-2-2 5-7 10-12 19-4 6-1-2 11-18 7-12z" fill="#CCD1E2"/>
<path transform="translate(1464,423)" d="m0 0m-1 1m-1 1m-1 1v3l-18 18-7 8-9 10v-3l12-14z" fill="#D6D7DE"/>
<path transform="translate(1546,1165)" d="m0 0 5 2 11 9-1 3-4-1-13-10z" fill="#E0E6F6"/>
<path transform="translate(1394,481)" d="m0 0h1v7l-4 20v3l4-4-2 5-4 5-2 2 1-10z" fill="#B4C3EB"/>
<path transform="translate(505,1197)" d="m0 0 3 1h59v2l-67 1 3-3z" fill="#D4D9E6"/>
<path transform="translate(1794,878)" d="m0 0v3l-13 20-8 13-2 1 2-6 10-15 3-6h2l1-4z" fill="#BFCAE7"/>
<path transform="translate(1415,263)" d="m0 0h1v13l-2 22-2 2v-14z" fill="#B4C3EB"/>
<path transform="translate(1712,815)" d="m0 0v3l-10 13-9 13-1-3 12-17z" fill="#DCDBDD"/>
<path transform="translate(1842,1092)" d="m0 0 1 3-12 19-9 11-2-1 8-10 2-4h2l2-5z" fill="#BAC7E8"/>
<path transform="translate(1412,1190)" d="m0 0 3 1-9 5h-3l-1 3-3 1h-11l3-2 10-3 10-4z" fill="#F1B242"/>
<path transform="translate(474,250)" d="m0 0 2 1-20 20h-2l2-4 14-14z" fill="#B7C9F7"/>
<path transform="translate(355,885)" d="m0 0 5 5 11 14 1 4-5-5-9-11-4-6z" fill="#DCDBDD"/>
<path transform="translate(1516,740)" d="m0 0h1l-1 26h-1l-1-14-4 7-1-2 6-12z" fill="#AEC1F0"/>
<path transform="translate(547,1138)" d="m0 0h1v31h-1l-1-18h-1l1-12z" fill="#C9D9FD"/>
<path transform="translate(1465,637)" d="m0 0h2l-2 4-9 3-12 5-3-1z" fill="#C6CEE4"/>
<path transform="translate(981,509)" d="m0 0h9l-3 2-7 3-7 5 1-4 5-5z" fill="#1E3E88"/>
<path transform="translate(1463,883)" d="m0 0h7l1 2-10 2-3 4-1 6h-2l1-8 5-5z" fill="#D1D4E0"/>
<path transform="translate(503,375)" d="m0 0 2 2 4 13 2 4-1 3-6-12z" fill="#BDC8E8"/>
<path transform="translate(274,817)" d="m0 0 5 2 13 9 1 2-5-2-14-9z" fill="#C2CBE6"/>
<path transform="translate(1288,443)" d="m0 0 1 3-4 8-3 8-1-4 2-13 2 4z" fill="#AFC0ED"/>
<path transform="translate(456,281)" d="m0 0 4 2 12 13 1 2-4-2-13-13z" fill="#9CB4F3"/>
<path transform="translate(280,915)" d="m0 0 4 2 10 10 2 5-7-6-9-10z" fill="#BAC6E9"/>
<path transform="translate(315,847)" d="m0 0 4 2 11 10-1 2-8-7-6-5z" fill="#C1CBE6"/>
<path transform="translate(647,1118)" d="m0 0 4 1-4 2-2 11-2-3v-9z" fill="#DAAF96"/>
<path transform="translate(487,253)" d="m0 0 4 2 7 8 5 5-1 2-15-15z" fill="#8FADF8"/>
<path transform="translate(649,287)" d="m0 0 5 5 6 8-1 3-8-10-3-5z" fill="#BBC7E8"/>
<path transform="translate(1871,760)" d="m0 0 4 2 1 3v8l-4 3 2-8-2-5z" fill="#AEBFED"/>
<path transform="translate(1394,507)" d="m0 0v3l-6 9h-1l1-10 3 2z" fill="#C2CCE9"/>
<path transform="translate(298,934)" d="m0 0 4 2 7 9-1 2-10-11z" fill="#B4C3EB"/>
<path transform="translate(646,1121)" d="m0 0h1l2 9 1 2h-5v-8z" fill="#F1B242"/>
<path transform="translate(250,886)" d="m0 0 4 2 7 6v2l-4-2-7-6z" fill="#BDC8E8"/>
<path transform="translate(1949,669)" d="m0 0h4l-2 9-2 2 1-8-5-1z" fill="#A8BCEF"/>
</svg>
